<svg xmlns="http://www.w3.org/2000/svg" viewBox="0 0 366 120.33"><defs><style>.cls-1{fill:#f88c00;}.cls-2{fill:#fff;}</style></defs><g id="Layer_2" data-name="Layer 2"><g id="Layer_1-2" data-name="Layer 1"><path class="cls-1" d="M0,0H366a0,0,0,0,1,0,0V94.15a26.18,26.18,0,0,1-26.18,26.18H26.18A26.18,26.18,0,0,1,0,94.15V0A0,0,0,0,1,0,0Z"/><path class="cls-2" d="M21,90.19a15.92,15.92,0,0,1,4.41-10.25,16.24,16.24,0,0,1,1.37-1.25A15.64,15.64,0,0,1,40.89,76,15.45,15.45,0,0,1,51,86.22c.86,2.94.6,5.9.59,8.91,0,.78.08,9.35,0,9.35H40.3a1.3,1.3,0,0,1-.18-.81c0-3.08,0-6.17,0-9.26,0-2.74.29-5.76-1.27-8.16a3.31,3.31,0,0,0-2-1.59,2.6,2.6,0,0,0-2,.48,4.83,4.83,0,0,0-1.35,1.56c-1.44,2.51-1.05,5.45-1.05,8.22,0,3.19,0,6.39,0,9.58H20.91c0-4.68-.07-9.39.06-14.06C21,90.35,21,90.27,21,90.19Z"/><path class="cls-2" d="M224.2,75.59a.67.67,0,0,0,.32-.17c.19-.2,0-1.63,0-1.94V71.23c0-1.4.06-2.82,0-4.21-.05-2.27.38-4.36,2.39-5.75a5.88,5.88,0,0,1,6.3-.15c2.77,1.73,2.65,4.65,2.71,7.53.08,3.74.1,7.48.09,11.22,0,2.38,0,4.75-.1,7.12a39.48,39.48,0,0,1-.39,7,13.21,13.21,0,0,1-.45,1.75,15.29,15.29,0,0,1-17.44,9.86,15.76,15.76,0,0,1-9.46-6.07,13.84,13.84,0,0,1-1.54-2.66A15.49,15.49,0,0,1,213.85,77c.52-.26,1.05-.5,1.6-.71a15.87,15.87,0,0,1,4.52-1,15.05,15.05,0,0,1,2.42,0A6.7,6.7,0,0,0,224.2,75.59Zm-7.32,15q0,.73.06,1.44A7.62,7.62,0,0,0,218.85,97a2.8,2.8,0,0,0,1.12.7,2.59,2.59,0,0,0,2.42-.67,5.45,5.45,0,0,0,1.33-2.23c1.15-3.2,1.19-7.8-1.2-10.48a2.6,2.6,0,0,0-3.13-.37,4.74,4.74,0,0,0-1.78,2.42A12.35,12.35,0,0,0,216.88,90.59Z"/><path class="cls-2" d="M117.93,104.91c-.92-1.12-4.86-7.71-6.24-9.53V104c0,.3,0,.58-.29.72-3.77,0-7.54,0-11.32,0,.07-7.39-.15-14.79.07-22.18v-.1a9.31,9.31,0,0,1,.47-3.47,5.62,5.62,0,0,1,2.26-2.69,5.94,5.94,0,0,1,5.63-.12,5.54,5.54,0,0,1,1.87,1.49,6.9,6.9,0,0,1,1.25,4.08c0,.9,0,1.88,0,2.81s0,3.28,0,3.34.64-1.13.66-1.17c.2-.4.44-.79.65-1.18l1.3-2.35,2.59-4.7a8.85,8.85,0,0,1,1-1.56,5.21,5.21,0,0,1,1.94-1.36,6,6,0,0,1,6.37,1.22,5.74,5.74,0,0,1,1.18,6.33c-1,2.1-2.22,4-3.35,6.06-.26.47-.51.94-.78,1.41s-.77.92-.47,1.49a33,33,0,0,0,1.94,3c1.32,2,2.67,4,4,6a3.12,3.12,0,0,1,.69,1.83,2,2,0,0,1-1.37,1.6,5.76,5.76,0,0,1-2.19.26C123.13,104.77,117.91,104.94,117.93,104.91Z"/><path class="cls-2" d="M133.36,78.85a13.71,13.71,0,0,1,1.51-1.12,15.35,15.35,0,0,1,7.07-2.35,14.15,14.15,0,0,1,13.62,7c1.81,3.08,2.09,6.38,1.95,9.86,0,.19-17.85-.17-18.17.15s0,1,.1,1.39c.56,1.69,1.55,3.86,3.68,3.75a3.48,3.48,0,0,0,2.27-1.14,5.71,5.71,0,0,0,.87-1.21l.5-.85a1.07,1.07,0,0,1,.9-.53h8.77a.67.67,0,0,1,.66.78c-1.26,7.34-8.25,11.94-15.59,11.21a15.1,15.1,0,0,1-7.59-3,15.3,15.3,0,0,1-.55-24ZM143.15,88h3c.43,0,.57,0,.5-.47a5.15,5.15,0,0,0-.32-1.08,5.68,5.68,0,0,0-1.5-2.21,2.7,2.7,0,0,0-2.24-.67,3,3,0,0,0-1.85,1.54,14.1,14.1,0,0,0-.84,2c-.15.4-.36.93.27.93Z"/><path class="cls-2" d="M269.42,90.76a14.43,14.43,0,0,1,.51-4.13,15.28,15.28,0,0,1,14-11.3,15.25,15.25,0,0,1,12.18,25.36,15.23,15.23,0,0,1-26.72-9.81ZM281,89.63a13.45,13.45,0,0,0,.47,4.72,5.94,5.94,0,0,0,1.24,2.42,2.87,2.87,0,0,0,2.45,1c1.26-.21,2.09-1.44,2.56-2.63a12.19,12.19,0,0,0,.18-8.44c-.76-2.21-3.29-4.45-5.32-2a6,6,0,0,0-1.08,2.25A13.45,13.45,0,0,0,281,89.63Z"/><path class="cls-2" d="M173,90.89v-.33A15.3,15.3,0,0,1,202.08,84a15.33,15.33,0,0,1-.49,14.1,13.89,13.89,0,0,1-5.12,5.39,16,16,0,0,1-7.31,2.36A15.39,15.39,0,0,1,173,91.8C173,91.5,173,91.19,173,90.89Zm11.55,1.17a12,12,0,0,0,.32,1.67,6.13,6.13,0,0,0,2,3.51c1.43,1,3,.26,3.95-1.1a7.64,7.64,0,0,0,1.08-3.24A16.21,16.21,0,0,0,192,90a10.15,10.15,0,0,0-.66-3.63c-.68-1.68-2.28-3.66-4.26-2.55a4.76,4.76,0,0,0-1.92,2.57A11.78,11.78,0,0,0,184.5,92.06Z"/><path class="cls-2" d="M332.42,104.5H321c-.1-3,0-6,0-9,0-2.77.22-5.74-.89-8.34a3.85,3.85,0,0,0-2.21-2.37,3.22,3.22,0,0,0-3.4,1.58c-1.59,2.46-1.29,5.8-1.29,8.59,0,.8.08,9.55,0,9.55H301.89c0-3.79,0-7.58,0-11.37s.18-7.17,2.18-10.46A15.22,15.22,0,0,1,324,77c6.68,3.4,8.87,10.77,8.5,17.77-.06,1.1-.06,2.23-.08,3.34C332.44,100.2,332.41,102.35,332.42,104.5Z"/><path class="cls-2" d="M267.09,92.2v0c-.19.2-.9.1-1.15.1-1.24,0-2.48,0-3.72,0-2.13,0-4.26-.07-6.39-.07H250c-.66,0-.87.08-.84.7a7,7,0,0,0,1,2.64,3.42,3.42,0,0,0,3.33,1.91c1.32-.23,2.18-1.48,2.9-2.61.89-1.41,2.63-1.22,4.07-1.24,2,0,4,.07,6.05,0,1.47,0,.26,2.67,0,3.4a12.77,12.77,0,0,1-2.58,4.19,14.25,14.25,0,0,1-6.57,4,15.32,15.32,0,1,1-7.49-29.7,14.84,14.84,0,0,1,13,3.63,14.39,14.39,0,0,1,4.44,10.35C267.29,90.09,267.42,91.82,267.09,92.2Zm-10.41-4.4a.54.54,0,0,0,0-.27,10.23,10.23,0,0,0-.86-2,4.29,4.29,0,0,0-1.58-1.69,3,3,0,0,0-3.05.46,7.72,7.72,0,0,0-1.67,3.33c-.15.49.24.42.59.42h6.26C256.55,88,256.66,87.93,256.68,87.8Z"/><path class="cls-2" d="M97.84,89.15c-3.79,0-7.59,0-11.38,0-.3-2.24-1.9-7-5.08-5.1A4,4,0,0,0,80,85.62a10.69,10.69,0,0,0-.69,8.16A6.13,6.13,0,0,0,81.18,97a2.65,2.65,0,0,0,1.88.61,3.48,3.48,0,0,0,2.36-2,6.36,6.36,0,0,0,.86-3.38c.54-.09,9.65-.13,11.36,0a14.18,14.18,0,0,1-.41,2.5c-1.32,5.7-6.55,10.07-12.22,11-.45.07-.9.13-1.35.16a15.15,15.15,0,0,1-3.92-.21,14.94,14.94,0,0,1-4.06-1.36,15.45,15.45,0,0,1-7.84-9.69c-.13-.49-.23-1-.32-1.46a14.2,14.2,0,0,1-.22-2.84,15.8,15.8,0,0,1,.2-2.05,16,16,0,0,1,1.21-3.93A15.44,15.44,0,0,1,73.91,78,15.64,15.64,0,0,1,89,76.69a15.45,15.45,0,0,1,6.06,5.07A15.9,15.9,0,0,1,97,85.35C97.39,86.37,98.08,88.05,97.84,89.15Z"/><path class="cls-2" d="M171.13,104.48c-3.73.08-7.62,0-11.45,0,.08-9.91-.15-19.83-.06-29.74,0-2.81.07-5.63.16-8.44a6.1,6.1,0,0,1,.64-3.16,5.67,5.67,0,0,1,7.6-2.24,5.72,5.72,0,0,1,3,4.28c.25,2.37.09,4.86.11,7.24.05,5,0,10,0,15C171.12,93.09,171.08,98.79,171.13,104.48Z"/><path class="cls-2" d="M65.65,104.36h-12c-.15,0-.06-10.18-.06-10.89V86.69c0-1.88-.23-4.07.63-5.79,1-1.91,4.1-3.12,4.17-5.41,0-1.15-1-2-1.84-2.76a9.41,9.41,0,0,1-3.06-4.58,6.49,6.49,0,1,1,12,1.48c-.89,1.67-2.44,2.87-3.73,4.25-.82.87-1.19,1.76-.46,2.77a15,15,0,0,0,1.93,2.26,7.07,7.07,0,0,1,1.95,2.3,8.89,8.89,0,0,1,.38,3.63l0,4.36C65.62,90.45,65.74,104.36,65.65,104.36Z"/><path class="cls-2" d="M349.13,98.42v5.43a.5.5,0,0,1-.17.38.58.58,0,0,1-.39.15.57.57,0,0,1-.4-.15.49.49,0,0,1-.16-.38v-3.78l-2,3.6a.46.46,0,0,1-.5.28.55.55,0,0,1-.5-.32l-2-3.48v3.7a.53.53,0,0,1-.16.38.63.63,0,0,1-.41.15.56.56,0,0,1-.41-.15.53.53,0,0,1-.16-.38V98.42a.44.44,0,0,1,.23-.4.73.73,0,0,1,.5-.11.5.5,0,0,1,.41.29l2.52,4.36L348,98.2a.48.48,0,0,1,.41-.27.81.81,0,0,1,.51.1A.42.42,0,0,1,349.13,98.42Z"/><path class="cls-2" d="M341,98.4a.45.45,0,0,1-.15.34.5.5,0,0,1-.38.14h-1.85v5a.49.49,0,0,1-.16.38.61.61,0,0,1-.8,0,.49.49,0,0,1-.16-.38v-5h-1.87a.5.5,0,0,1-.37-.14.46.46,0,0,1,0-.68.55.55,0,0,1,.37-.14h4.84a.54.54,0,0,1,.38.14A.45.45,0,0,1,341,98.4Z"/></g></g></svg>