<svg xmlns="http://www.w3.org/2000/svg" viewBox="0 0 674.74 1047.96"><defs><style>.cls-1,.cls-16{fill:#ffe5c8;}.cls-1,.cls-11,.cls-13,.cls-14,.cls-15,.cls-2,.cls-3,.cls-5,.cls-6,.cls-8,.cls-9{stroke:#000;stroke-miterlimit:10;}.cls-3{fill:#fff;}.cls-4{fill:#fee6c5;}.cls-5{stroke-width:0.5px;}.cls-6{fill:#ffe5ca;}.cls-7{fill:#f8d9bf;}.cls-8{fill:#34c7f6;}.cls-9{fill:#d6b58d;stroke-width:0.75px;}.cls-10{fill:#028ec6;}.cls-11{fill:#0c8bb6;}.cls-12{fill:#f3d500;}.cls-13{fill:#fbffff;}.cls-13,.cls-14,.cls-15{stroke-width:4px;}.cls-14{fill:#f0b1c4;}.cls-15{fill:#ab331b;}</style></defs><g id="Layer_2" data-name="Layer 2"><g id="Layer_1-2" data-name="Layer 1"><path class="cls-1" d="M662.51,361.61a41.21,41.21,0,0,0-9.77-13.26,111.56,111.56,0,0,0-13.63-10.55L624.52,328c-9.12-6.14-18.78-12.37-27.92-18.61q-.47,1.05-1,2.1c-7.8,16.36-23.4,32.78-41.15,33.6a24.76,24.76,0,0,1,.43,9.35,28,28,0,0,1-3.53,10.07,30.27,30.27,0,0,1-3.1,4.34,34.45,34.45,0,0,1-3.76,3.69,40.3,40.3,0,0,1-8.74,5.46,48.76,48.76,0,0,1-9.56,3.18,49.61,49.61,0,0,1-19.63.51l0-.59a72.06,72.06,0,0,0,18.42-4,54,54,0,0,0,8.33-3.85,36.39,36.39,0,0,0,7.19-5.25,29.21,29.21,0,0,0,5.43-6.67,26.63,26.63,0,0,0,1.86-3.84,22.48,22.48,0,0,0,1.2-4.06,18.54,18.54,0,0,0-.08-8.32,18,18,0,0,0-3.9-7.41,22.29,22.29,0,0,0-15.27-7.61c-5.94-.35-12.2,1.64-18.87,2a26.29,26.29,0,0,1-5.08-.21,17.3,17.3,0,0,1-4.95-1.51,17.85,17.85,0,0,1-2.25-1.28,17.73,17.73,0,0,1-5.09-5.66,30.61,30.61,0,0,1-3.32-9.26,74.68,74.68,0,0,1-1.21-9.61l.59-.06a77.23,77.23,0,0,0,1.85,9.37,29.47,29.47,0,0,0,3.66,8.59,15.93,15.93,0,0,0,3,3.4,12.51,12.51,0,0,0,3.78,2.3,15,15,0,0,0,4.29,1,24.56,24.56,0,0,0,4.53-.09c3.61-.36,7.23-1.32,11-2.05-15.87-25.91-24.09-62.41-22.59-100.64.37-9.43,1.15-19.47,4.37-28.93A61.17,61.17,0,0,1,537.9,161c9.72-4,19.51-4.8,27.89-2.41.24-3.32,1.32-7.21,1.18-10.27-.12-2.19-.23-4.36-.52-6.48a32.69,32.69,0,0,0-1.39-6.1c-3.08-7.55-9.17-14.32-16.74-16.58A35.8,35.8,0,0,0,536.07,118c-2.13.09-4.32.28-6.51.44s-4.35.35-6.48.6a46.28,46.28,0,0,0-6.25,1.19,27.27,27.27,0,0,0-5.9,2.21c-1.94,1-3.87,2.12-6,3a15.09,15.09,0,0,1-3.31.94,8.33,8.33,0,0,1-3.38-.18,10.86,10.86,0,0,0,6-2c1.81-1.16,3.5-2.55,5.35-3.88a30.87,30.87,0,0,1,6.15-3.24,45.38,45.38,0,0,1,6.63-1.91c2.23-.5,4.46-.83,6.67-1.14s4.42-.58,6.69-.77a41.38,41.38,0,0,1,10.63.32c-10.66-7.92-24-14.86-32.7-16.23-8.21-1.3-16.75-1.45-25-1.6-6.35-.11-12.93-.23-19.4-.86a23.69,23.69,0,0,1-8.39-2c-4.2-2.13-6.9-6.19-8.87-9.15l-2.4-3.62c-8.13-12.31-16.46-24.92-27.26-34a10.38,10.38,0,0,0-.61,1.26,40,40,0,0,0-1.8,5.42c-.5,2-.88,4.1-1.25,6.36a63,63,0,0,1-1.4,7.1l-.69.1a26.6,26.6,0,0,1-2.85-6.93,24.44,24.44,0,0,1-.73-7.7,16,16,0,0,1,2.74-7.85,18,18,0,0,1,1.38-1.73,55.15,55.15,0,0,0-8.32-4.7,62.49,62.49,0,0,0-15.14-4.49,20.5,20.5,0,0,0-2.18,2.2,34.72,34.72,0,0,0-3.29,4.68,25.69,25.69,0,0,0-2.43,5.56,32,32,0,0,0-1.24,6.74l-.66.23a13.47,13.47,0,0,1-3-7.28,17.59,17.59,0,0,1,1-8.16,15.25,15.25,0,0,1,3.05-5.05c-3.64-.29-7.21-.41-10.61-.47a265.62,265.62,0,0,0-34.77,1.75l-.33.91c-.39,1-.65,1.85-.94,2.69s-.52,1.72-.77,2.6A29.61,29.61,0,0,0,336.6,45c-.06,1-.06,2,0,3.11s.15,2.18.24,3.39l-.6.35a13.42,13.42,0,0,1-4.46-5.93,17.43,17.43,0,0,1-1.17-7.61,15.71,15.71,0,0,1,.77-3.88l.09-.24q-12.09,1.77-24,4.66c-5.8,1.41-11.53,3-17.15,4.72a59.61,59.61,0,0,0-.57,6.1,33.43,33.43,0,0,0,.36,6.73,14.39,14.39,0,0,0,.76,3.17,5.29,5.29,0,0,0,2,2.66l-.11.69a5.55,5.55,0,0,1-4.33-1.3,12,12,0,0,1-2.93-3.45A20.66,20.66,0,0,1,282.72,50a18.2,18.2,0,0,1-.06-4c-8.36,2.72-16.46,5.65-24.25,8.53-4.21,1.56-8.48,3.17-12.75,4.88a23.24,23.24,0,0,0,1.34,3,24,24,0,0,0,4.09,5.52l-.26.65a12.54,12.54,0,0,1-7.53-2.89,16.57,16.57,0,0,1-3.52-3.85,168.08,168.08,0,0,0-23.84,12.15q0,.53-.12,1a17.73,17.73,0,0,1-2.49,7.13l-.68-.12c-.44-1.74-.84-3.36-1.26-4.92-11.3,8.56-22.81,22.82-33,38q.19.3.36.6a10.74,10.74,0,0,1,1.26,4.18,7.59,7.59,0,0,1-.91,4l-.69-.1a9.93,9.93,0,0,0-1.46-3,9.67,9.67,0,0,0-1.38-1.47c-17.48,26.74-30.66,54.86-31.67,58.64l-.29,1.1-1,.5c-33.63,16.37-57.23,51-60.12,88.33,0,.3-1.87,34.15.21,55.11a40.07,40.07,0,0,1,7.06-.87,39.53,39.53,0,0,1,26,8.75,40.85,40.85,0,0,0-25.83-6.3,39.11,39.11,0,0,0-23.47,11,41.49,41.49,0,0,0-7.64,10.56A67.16,67.16,0,0,0,54,358.49a65,65,0,0,0-2.47,26.2,46.42,46.42,0,0,0,1.21,6.43c.25,1.06.61,2.08.93,3.11s.72,2,1.19,3a41.69,41.69,0,0,0,6.91,10.93,37.93,37.93,0,0,0,4.66,4.48,34.59,34.59,0,0,0,5.39,3.51,35,35,0,0,0,12.38,3.57,61.42,61.42,0,0,0,13.33-.27,134.11,134.11,0,0,0,13.41-2.28,124,124,0,0,0,25.91-8.7,103.82,103.82,0,0,1-25.3,11.06c-2.6.75-5.21,1.43-7.85,2,1.75,3.25,3.51,6.49,5.34,9.71a72.65,72.65,0,0,1,28.66,1.85c12.79,3.29,24.71,9.33,36.09,16,5.26,3.09,10.49,6.38,14.7,10.78,7.75,8.1,11.4,19.19,14.55,29.94a16.56,16.56,0,0,0,2.4,5.6c1.48,2,3.73,3.14,5.86,4.35,21.87,12.44,37.9,33.74,46.52,57.43,9.8,2.6,19.7,4.91,29.65,7.13,26.54,6,53.63,10.88,79.82,19.14l-.17.68-10.51-1.67-1.89,15.58-.52-3.21a14.14,14.14,0,0,0-12.78,15,17.3,17.3,0,0,0,2.48,6.85c3.79,6.36,10.77,11.23,19.65,13.71,7.73,2.17,15.61,2.42,25.09,2.51,3.28,0,7,.07,10.15-1.27,6-2.54,9.18-10.35,7-17.06-2-6-8.44-11-15.46-12.44l-1.05,9.9-2.5-28c2.53-.55,5.55.25,8.05-.15s5-.86,7.46-1.24,4.94-.86,7.4-1.28,4.91-.91,7.36-1.36l3.66-.72,3.67-.65c2.44-.5,4.89-.92,7.34-1.34L439,575.9c2.42-.57,4.85-1.17,7.27-1.78l7.19-2.13,7.1-2.4c2.35-.86,4.68-1.77,7-2.66s4.6-2,6.91-2.95a155.64,155.64,0,0,0,25.79-14.53c-7.1-1.42-14.07-3.46-21-5.52l.11-.38c11.28,2.72,22.67,5.53,34.19,5.66a60.56,60.56,0,0,0,16.94-2,41.77,41.77,0,0,0,15-7.38,17.33,17.33,0,0,0,4.94-6.14,10.37,10.37,0,0,0,.5-7.19,8.16,8.16,0,0,0-4.71-4.93A36.6,36.6,0,0,0,542.5,520l-4.07-1.49c-5.44-2-10.9-3.95-16.36-5.91s-11-3.86-16.44-5.88l.1-.39q3.42.54,6.79,1.22c1.77-6.2,3.41-12.45,5.05-18.69l5.22-19.73c.88-3.29,1.82-6.57,2.75-9.85s1.92-6.57,3.09-9.84a65.87,65.87,0,0,1,4.25-9.61l.32-.57c-6.63,1.75-13.27,3.47-20,5.12-13.15,23-22.14,51.34-24.39,77.12,1.7-.11,3.4-.19,5.11-.22a91.65,91.65,0,0,1,21.48,2l-.19.88c-14-2.84-28.5-1.84-42.44,1s-27.6,7.35-41.28,11.61-27.54,8.37-41.91,10.35a109.63,109.63,0,0,1-21.74,1,97,97,0,0,1-21.51-3.79,112.42,112.42,0,0,1-20.2-8.29,131.49,131.49,0,0,1-18.39-11.7c-11.66-8.74-21.83-19.24-31-30.36s-17.49-23-25.53-34.87c-4-5.9-8.24-11.79-11.74-18.35A61.73,61.73,0,0,1,235,430.42a48.41,48.41,0,0,1-2.14-11.21l-.2-2.95a93.22,93.22,0,0,0-11.58,6.11,27.08,27.08,0,0,0-5.16,4.32,16.14,16.14,0,0,0-3.4,6,12.78,12.78,0,0,1,1.37-7.39,21.75,21.75,0,0,1,4.77-6c3.77-3.46,8.26-5.78,12.56-7.89A106.21,106.21,0,0,1,244.74,406,75.44,75.44,0,0,1,259,402.74c-4.2,2.53-8.48,4.7-12.74,6.86-3.55,1.79-7.1,3.53-10.66,5.26l2.23,2A123.36,123.36,0,0,0,299,446c11.29,1.88,22.89,2.2,34.6,2.42s23.46.41,35.17.5c23.42.21,46.8-.17,70-2,11.61-.94,23.18-2.13,34.65-3.92s22.81-4,34.12-6.79c45.33-11.56,91.19-22.29,134.76-38.54,5.3-2.08,10.39-4.48,14.52-7.8a21,21,0,0,0,7.95-12.72A27.29,27.29,0,0,0,662.51,361.61Zm-548.58-6.68a42.78,42.78,0,0,0-5.11-1.75l1.65,1.55c-6.27,5.93-8.54,16.33-4.78,24.84a23.18,23.18,0,0,1-2.85-13.6,23.86,23.86,0,0,1,5.2-13,40.67,40.67,0,0,0-4.5-.89A42.26,42.26,0,0,0,92.76,352a43.52,43.52,0,0,0-10.69,2.76,24.81,24.81,0,0,1,10.27-5.05A31.26,31.26,0,0,1,115,352.84a24.76,24.76,0,0,1,8.49,7.67A44.24,44.24,0,0,0,113.93,354.93ZM285.31,134.38A86.85,86.85,0,0,1,310.66,115a82.25,82.25,0,0,1,30.78-8.46c1.33-.13,2.68-.08,4-.12s2.66-.09,4,0a53.62,53.62,0,0,1,8,.94,33.35,33.35,0,0,1,7.63,2.53,21.93,21.93,0,0,1,6.42,4.65,28.85,28.85,0,0,0-14.41-4.75,53.66,53.66,0,0,0-7.61-.1c-1.27.07-2.55.23-3.82.33s-2.54.18-3.8.4a96.4,96.4,0,0,0-28.93,9,103.47,103.47,0,0,0-24.78,17.57,105.19,105.19,0,0,0-18.47,24.67A75.09,75.09,0,0,1,285.31,134.38ZM413.42,338.16c-6.4,14.36-21.22,30.53-39.49,34.28a103.87,103.87,0,0,1,12.77,12.12A203.83,203.83,0,0,0,361,368a177.63,177.63,0,0,0-57.21-19.05c-5-.74-10.06-1.27-15.15-1.62-2.54-.2-5.09-.2-7.65-.36a26.58,26.58,0,0,0-3.79.05,8.76,8.76,0,0,0-3.6,1.06,8.63,8.63,0,0,1,3.46-1.8,24.8,24.8,0,0,1,3.86-.68c1.29-.15,2.57-.26,3.86-.39s2.58-.29,3.87-.32l3.89-.12c1.3,0,2.6-.09,3.89,0s2.6.07,3.9.12l1.95.07h.08c-11.28-17.17-15.48-37.82-17.68-52.23-4.81-31.46-2.71-56.68,6.39-77.1,11.68-26.2,37-43.79,61.65-42.79,22.54.91,44.74,17.06,56.54,41.13,11.06,22.56,12.61,48.26,12.67,70.43C422,302.29,421,321.22,413.42,338.16Z"/><path class="cls-2" d="M386.7,384.56A203.83,203.83,0,0,0,361,368a177.63,177.63,0,0,0-57.21-19.05c-5-.74-10.06-1.27-15.15-1.62-2.54-.2-5.09-.2-7.65-.36a26.58,26.58,0,0,0-3.79.05,8.76,8.76,0,0,0-3.6,1.06,8.63,8.63,0,0,1,3.46-1.8,24.8,24.8,0,0,1,3.86-.68c1.29-.15,2.57-.26,3.86-.39s2.58-.29,3.87-.32l3.89-.12c1.3,0,2.6-.09,3.89,0s2.6.07,3.9.12l1.95.07h.08l1.86.16c1.11.08,2.21.18,3.32.3A128.78,128.78,0,0,1,363,364.63c2.24,1.42,4.43,2.9,6.57,4.46q2.23,1.62,4.39,3.35A103.87,103.87,0,0,1,386.7,384.56Z"/><path class="cls-2" d="M371.47,114.56a28.85,28.85,0,0,0-14.41-4.75,53.66,53.66,0,0,0-7.61-.1c-1.27.07-2.55.23-3.82.33s-2.54.18-3.8.4a96.4,96.4,0,0,0-28.93,9,103.47,103.47,0,0,0-24.78,17.57,105.19,105.19,0,0,0-18.47,24.67,75.09,75.09,0,0,1,15.66-27.35A86.85,86.85,0,0,1,310.66,115a82.25,82.25,0,0,1,30.78-8.46c1.33-.13,2.68-.08,4-.12s2.66-.09,4,0a53.62,53.62,0,0,1,8,.94,33.35,33.35,0,0,1,7.63,2.53A21.93,21.93,0,0,1,371.47,114.56Z"/><path class="cls-2" d="M554.92,354.39a28,28,0,0,1-3.53,10.07,30.27,30.27,0,0,1-3.1,4.34,34.45,34.45,0,0,1-3.76,3.69,40.3,40.3,0,0,1-8.74,5.46,48.76,48.76,0,0,1-9.56,3.18,49.61,49.61,0,0,1-19.63.51l0-.59a72.06,72.06,0,0,0,18.42-4,54,54,0,0,0,8.33-3.85,36.39,36.39,0,0,0,7.19-5.25,29.21,29.21,0,0,0,5.43-6.67,26.63,26.63,0,0,0,1.86-3.84,22.48,22.48,0,0,0,1.2-4.06,18.54,18.54,0,0,0-.08-8.32,18,18,0,0,0-3.9-7.41,22.29,22.29,0,0,0-15.27-7.61c-5.94-.35-12.2,1.64-18.87,2a26.29,26.29,0,0,1-5.08-.21,17.3,17.3,0,0,1-4.95-1.51,17.85,17.85,0,0,1-2.25-1.28,17.73,17.73,0,0,1-5.09-5.66,30.61,30.61,0,0,1-3.32-9.26,74.68,74.68,0,0,1-1.21-9.61l.59-.06a77.23,77.23,0,0,0,1.85,9.37,29.47,29.47,0,0,0,3.66,8.59,15.93,15.93,0,0,0,3,3.4,12.51,12.51,0,0,0,3.78,2.3,15,15,0,0,0,4.29,1,24.56,24.56,0,0,0,4.53-.09c3.61-.36,7.23-1.32,11-2.05,1.41-.27,2.84-.51,4.3-.66a33.24,33.24,0,0,1,3.9-.22,25.48,25.48,0,0,1,10.13,2.26,26.27,26.27,0,0,1,8.55,6,23.22,23.22,0,0,1,4.5,6.62,23.54,23.54,0,0,1,1,2.58c.15.46.28.92.39,1.39A24.76,24.76,0,0,1,554.92,354.39Z"/><path class="cls-2" d="M353.24,589h-.05l.06.39h0Z"/><path class="cls-2" d="M565.44,127.38h0a.05.05,0,0,0,0,0S565.43,127.37,565.44,127.38Z"/><path class="cls-3" d="M417.93,284.37c.05,17.49-.91,35.91-8.16,52.16-9.14,20.5-27.27,31.24-40.23,32.55h0c-2.14-1.56-4.33-3-6.57-4.46a128.78,128.78,0,0,0-55.43-19.25c-12.24-17-16.65-38.49-18.91-53.29-4.68-30.68-2.69-55.18,6.1-74.87,11-24.74,34.8-41.36,57.82-40.43,21.1.86,41.95,16.13,53.12,38.9C416.37,237.52,417.87,262.65,417.93,284.37Z"/><path class="cls-2" d="M421.93,284.36c.05,17.93-.95,36.86-8.51,53.8-6.4,14.36-21.22,30.53-39.49,34.28a37.64,37.64,0,0,1-4,.62l-.4-4h0c13-1.31,31.09-12.05,40.23-32.55,7.25-16.25,8.21-34.67,8.16-52.16-.06-21.72-1.56-46.85-12.26-68.68-11.17-22.77-32-38-53.12-38.9-23-.93-46.79,15.69-57.82,40.43-8.79,19.69-10.78,44.19-6.1,74.87,2.26,14.8,6.67,36.32,18.91,53.29.17.25.35.5.53.74l-3.22,2.38c-.87-1.17-1.7-2.37-2.49-3.58-11.28-17.17-15.48-37.82-17.68-52.23-4.81-31.46-2.71-56.68,6.39-77.1,11.68-26.2,37-43.79,61.65-42.79,22.54.91,44.74,17.06,56.54,41.13C420.32,236.49,421.87,262.19,421.93,284.36Z"/><path class="cls-3" d="M600.93,258.61c-.38,17.2-1.38,35.32-8.9,51.11-10.31,21.65-26.89,31.31-38.9,31.35a23.22,23.22,0,0,0-4.5-6.62,26.27,26.27,0,0,0-8.55-6A25.48,25.48,0,0,0,530,326.18a33.24,33.24,0,0,0-3.9.22c-16-25.32-24.39-61.66-22.89-99.82.35-9.14,1.11-18.83,4.15-27.8a57.14,57.14,0,0,1,32.1-34.09c9.8-4,19.59-4.54,27.55-1.52,7.4,2.82,14,8.87,19.59,18C600.87,204.52,601.48,233.39,600.93,258.61Z"/><path class="cls-2" d="M123.45,360.51a44.24,44.24,0,0,0-9.52-5.58,42.78,42.78,0,0,0-5.11-1.75h0L108,353a40.67,40.67,0,0,0-4.5-.89A42.26,42.26,0,0,0,92.76,352a43.52,43.52,0,0,0-10.69,2.76,24.81,24.81,0,0,1,10.27-5.05A31.26,31.26,0,0,1,115,352.84,24.76,24.76,0,0,1,123.45,360.51Z"/><path class="cls-2" d="M105.69,379.57a23.18,23.18,0,0,1-2.85-13.6,23.86,23.86,0,0,1,5.2-13c.07-.1.16-.2.24-.3l.53.5h0l1.65,1.55C104.2,360.66,101.93,371.06,105.69,379.57Z"/><path class="cls-2" d="M526.05,326.4c-1.46.15-2.89.39-4.3.66.43.7.87,1.4,1.31,2.09l3.36-2.16Zm28.05,17.25a23.54,23.54,0,0,0-1-2.58h-.36l-.06,4h.39c.46,0,.93,0,1.39,0C554.38,344.57,554.25,344.11,554.1,343.65ZM103.2,420.74l-.63.31c.11.23.22.46.34.69l.74-.17Z"/><path class="cls-2" d="M416.94,508h-1c0-.35,0-.69,0-1l1,.4C416.93,507.62,416.94,507.82,416.94,508Z"/><path class="cls-2" d="M416.94,508h-1c0-.35,0-.69,0-1l1,.4C416.93,507.62,416.94,507.82,416.94,508Z"/><path class="cls-2" d="M136.8,408.5a103.82,103.82,0,0,1-25.3,11.06c-2.6.75-5.21,1.43-7.85,2l-.74.17c-1.65.36-3.3.68-5,1a60.82,60.82,0,0,1-14.11.91,40.61,40.61,0,0,1-7.14-1.05,36.25,36.25,0,0,1-6.88-2.48,39.72,39.72,0,0,1-6.22-3.84,42.33,42.33,0,0,1-5.38-4.9,47.16,47.16,0,0,1-11.69-26,68.82,68.82,0,0,1,2.89-28.17A72.64,72.64,0,0,1,54.87,344,41.54,41.54,0,0,1,75.8,325.08c.62-.25,1.24-.49,1.87-.71a38.83,38.83,0,0,1,5-1.39,40.07,40.07,0,0,1,7.06-.87,39.53,39.53,0,0,1,26,8.75,40.85,40.85,0,0,0-25.83-6.3,39.11,39.11,0,0,0-23.47,11,41.49,41.49,0,0,0-7.64,10.56A67.16,67.16,0,0,0,54,358.49a65,65,0,0,0-2.47,26.2,46.42,46.42,0,0,0,1.21,6.43c.25,1.06.61,2.08.93,3.11s.72,2,1.19,3a41.69,41.69,0,0,0,6.91,10.93,37.93,37.93,0,0,0,4.66,4.48,34.59,34.59,0,0,0,5.39,3.51,35,35,0,0,0,12.38,3.57,61.42,61.42,0,0,0,13.33-.27,134.11,134.11,0,0,0,13.41-2.28A124,124,0,0,0,136.8,408.5Z"/><circle class="cls-2" cx="539.74" cy="284.07" r="12"/><circle class="cls-2" cx="337.74" cy="304.07" r="12"/><circle class="cls-2" cx="140.74" cy="252.07" r="7"/><circle class="cls-2" cx="163.74" cy="305.07" r="7"/><circle class="cls-2" cx="107.74" cy="301.07" r="7"/><polygon points="353.28 589.37 353.25 589.37 353.19 588.98 353.24 588.98 353.28 589.37"/><path d="M244.11,632.17l-.29.08a54,54,0,0,0-11.1-19.58,109.91,109.91,0,0,0-16.57-15.39c-3-2.32-6.06-4.55-9.17-6.73s-6.18-4.37-9.27-6.52-6.26-4.16-9.52-6A99.06,99.06,0,0,0,178,573l.09-.29c7.58,1.39,14.72,4.81,21.25,8.85s12.4,9,18.3,13.9a111.58,111.58,0,0,1,16.22,16.3A55,55,0,0,1,244.11,632.17Z"/><path d="M298.26,664.29l-.24.18a119.78,119.78,0,0,0-16-13.82A102.6,102.6,0,0,0,264,640a78.31,78.31,0,0,0-20.22-5.79,70.14,70.14,0,0,0-21.16,0l0-.3a71,71,0,0,1,21.39-1.19,80.42,80.42,0,0,1,21,5.06,71.78,71.78,0,0,1,18.94,10.48A61.86,61.86,0,0,1,298.26,664.29Z"/><path d="M544.85,584.69l-1,0a2.53,2.53,0,0,0,.92.36h1A3.19,3.19,0,0,1,544.85,584.69Zm63.89,17.38,1,1,.24-.9A7.76,7.76,0,0,0,608.74,602.07Z"/><path d="M165.13,720.48h0l.08-.13Z"/><path d="M614.88,575.84a38.3,38.3,0,0,1-1.33,9.08c-1.46,5.58-2.16,11.64-3.57,17.25l-.24.9-1.34-.72c1.42-5.88,2.91-11.76,4.27-17.63a37.2,37.2,0,0,0,1.05-8.87,17.91,17.91,0,0,0-2.21-8.41c-1.37-2.61-3.19-5-4.75-7.69a39.4,39.4,0,0,1-3.62-8.52c-1.81-5.89-2.62-11.93-4.3-17.63a31.52,31.52,0,0,0-3.35-8,11.64,11.64,0,0,0-6.13-5.15,6.93,6.93,0,0,0-7.09,1.27,10.39,10.39,0,0,0-2.77,7.2,38.18,38.18,0,0,0,1.25,8.61,47.41,47.41,0,0,1-2.09,27.78l-1,2.65L575.47,566a54.21,54.21,0,0,0-10.54-8,19.53,19.53,0,0,0-5.8-2.15c-.5-.13-1-.13-1.49-.21s-1,0-1.49,0l-1.48.13a5.23,5.23,0,0,0-1.16.3,1.23,1.23,0,0,0-.52.36,1.15,1.15,0,0,0-.21.63,6.33,6.33,0,0,0,.48,2.57,25.47,25.47,0,0,0,2.79,5.78,27.08,27.08,0,0,0,9.25,8.93l8.59,5L564.3,577a52,52,0,0,0-15.09-1.32,15.83,15.83,0,0,0-3.62.59,6.15,6.15,0,0,0-2.94,1.82,4.1,4.1,0,0,0-.81,3.25c.13.92,1.74,2.58,3,3.34a3.19,3.19,0,0,0,.89.38h-1a2.53,2.53,0,0,1-.92-.36h0a8.38,8.38,0,0,1-1.79-1.33,4.25,4.25,0,0,1-1-1.85,5.15,5.15,0,0,1,.67-4.16,7.53,7.53,0,0,1,3.36-2.56,15.79,15.79,0,0,1,4-1,50,50,0,0,1,9.63-.39,30.1,30.1,0,0,1-5.59-6.06,29.31,29.31,0,0,1-3.38-6.5,10,10,0,0,1-.8-4.14,4.93,4.93,0,0,1,3-4.36,8.58,8.58,0,0,1,2.15-.63c.65-.08,1.3-.16,2-.21s1.3,0,1.95,0a15.63,15.63,0,0,1,1.93.23,23.25,23.25,0,0,1,7.07,2.56,48.86,48.86,0,0,1,9.1,6.78,42.64,42.64,0,0,0,2.42-14.26,45.23,45.23,0,0,0-.88-8.71,41.06,41.06,0,0,1-1.11-9.34,15.15,15.15,0,0,1,1-4.91,11.2,11.2,0,0,1,2.86-4.3,9,9,0,0,1,4.79-2.25,10.86,10.86,0,0,1,5.11.55,12.65,12.65,0,0,1,4.32,2.58,17.08,17.08,0,0,1,3.07,3.8,33.93,33.93,0,0,1,3.45,8.73c1.61,5.95,2.32,12,3.91,17.71a38.12,38.12,0,0,0,3.23,8.25c1.42,2.59,3.19,5.08,4.56,7.87a19.75,19.75,0,0,1,1.62,4.39A20.8,20.8,0,0,1,614.88,575.84Z"/><path d="M416.93,507.41l-1-.4c0,.34,0,.68,0,1h1C416.94,507.82,416.93,507.62,416.93,507.41Z"/><path class="cls-4" d="M619.9,619.81a18.6,18.6,0,0,1-1.6,6.65,14.4,14.4,0,0,1-4.17,5.17c-.45.33-.92.66-1.4,1s-1,.63-1.47.83a9.61,9.61,0,0,1-3.15.81,27.8,27.8,0,0,1-7.1-.47c-2.42-.4-4.84-1-7.37-1.35l-3-.47,2,2.23a12.55,12.55,0,0,1,3.45,9.24,7,7,0,0,1-2,4.35,7.66,7.66,0,0,1-4.46,2,9.72,9.72,0,0,1-5-.75,9.82,9.82,0,0,1-4-3.31,14.67,14.67,0,0,1-2.51-9.17c.81-.42,1.61-.85,2.41-1.28l3.91-2.47c1.24-.92,2.49-1.81,3.7-2.77s2.32-2,3.45-3,2.13-2.22,3.12-3.4l-.26-.3c-1.37.7-2.67,1.47-4,2.24s-2.64,1.43-3.92,2.18-2.63,1.38-3.94,2.07l-4,2c-1.34.61-2.68,1.23-4,1.89s-2.69,1.22-4,1.86l-4.07,1.75-4.17,1.52A91.33,91.33,0,0,1,529,643.09c.5-1.05,1-2.13,1.39-3.21A61.32,61.32,0,0,0,533,631.2a54.79,54.79,0,0,0,.66-18.06,51.37,51.37,0,0,0-1.85-8.85,54.76,54.76,0,0,0-9.56-18.49c4.5.25,9,.42,13.52.63L550,587c4.75.15,9.51.56,14.26.36s9.35-.79,14,.52l.13-.27a15.73,15.73,0,0,0-6.86-2.63,61.58,61.58,0,0,0-7.2-.62c-4.76-.24-9.51.13-14.27.24l-5.14.14c-1.27-.76-2.88-2.42-3-3.34a4.1,4.1,0,0,1,.81-3.25,6.15,6.15,0,0,1,2.94-1.82,15.83,15.83,0,0,1,3.62-.59A52,52,0,0,1,564.3,577l9.59,2.3-8.59-5a27.08,27.08,0,0,1-9.25-8.93,25.47,25.47,0,0,1-2.79-5.78,6.33,6.33,0,0,1-.48-2.57,1.15,1.15,0,0,1,.21-.63,1.23,1.23,0,0,1,.52-.36,5.23,5.23,0,0,1,1.16-.3l1.48-.13c.49,0,1,0,1.49,0s1,.08,1.49.21a19.53,19.53,0,0,1,5.8,2.15,54.21,54.21,0,0,1,10.54,8l2.14,1.95,1-2.65a47.41,47.41,0,0,0,2.09-27.78,38.18,38.18,0,0,1-1.25-8.61,10.39,10.39,0,0,1,2.77-7.2,6.93,6.93,0,0,1,7.09-1.27,11.64,11.64,0,0,1,6.13,5.15,31.52,31.52,0,0,1,3.35,8c1.68,5.7,2.49,11.74,4.3,17.63a39.4,39.4,0,0,0,3.62,8.52c1.56,2.67,3.38,5.08,4.75,7.69a17.91,17.91,0,0,1,2.21,8.41,37.2,37.2,0,0,1-1.05,8.87c-1.36,5.87-2.85,11.75-4.27,17.63l1.34.72a10.51,10.51,0,0,1,6.21,3.4,12.62,12.62,0,0,1,1.79,3,24.57,24.57,0,0,1,1.18,3.38A23.52,23.52,0,0,1,619.9,619.81Z"/><path d="M165.25,720.35l-.08.13h0Z"/><polygon points="150.74 557.07 147.28 556.06 147.86 556.21 150.74 557.07"/><path d="M134.31,539.84c-10.69,0-21.44,1.61-31.94,3.38,3,.76,6,1.56,9,2.38l35.87,10.46-36.17-9.3c-4.11-1-8.23-2-12.36-2.93l-2.11-.45A207.68,207.68,0,0,0,74,539.68c-12.48-1.28-25.19-1-37.35,1.79a73.58,73.58,0,0,0-17.44,6.32C13.79,550.67,9,554.7,6.23,560A27.11,27.11,0,0,0,4,577.37a32,32,0,0,0,2.85,8.47A35,35,0,0,0,12,593.2a46.49,46.49,0,0,0,14.52,10.73A68.11,68.11,0,0,0,44,609.58a146.24,146.24,0,0,0,18.57,2.25c6.28.45,12.57.68,18.87.87s12.61.15,18.92,0l1.83,0,3.21-.08c4.63-.15,9.26-.4,13.9-.66l0,.4c-4.64.71-9.3,1.27-14,1.73-1.27.14-2.55.26-3.82.37l-1.09.1c-6.33.51-12.67.82-19,1s-12.7.08-19.06-.13a143.85,143.85,0,0,1-19.12-1.85,72,72,0,0,1-18.57-5.85A49.68,49.68,0,0,1,9,595.81a38.85,38.85,0,0,1-5.5-8.3,35.88,35.88,0,0,1-3-9.52A30.58,30.58,0,0,1,3.4,558.48a28.51,28.51,0,0,1,6.27-7.77,40.9,40.9,0,0,1,8.16-5.48,76.63,76.63,0,0,1,18.23-6.3c12.57-2.73,25.52-2.73,38.14-1.24,7.49.92,21.91,2.54,21.91,2.54,12.42-2.14,25.26-4.34,38.18-4.39h.56a.09.09,0,0,0,0,0l.15,0h0c14.37,0,29.47,8.7,39.72,14.22l-4.53-2.33C160.38,542.44,148.32,539.79,134.31,539.84Z"/><path d="M105.74,626.07l-.7,0h-.35a6,6,0,0,1-1,0c-.17-.28-.34-.58-.49-.89-1.65-3.17-2.61-7.49-1.75-10.78,1.27-.11,2.55-.23,3.82-.37v.49c.22,0-.86,7.44.06,10.68h0a3.42,3.42,0,0,0,.35.86A0,0,0,0,1,105.74,626.07Z"/><path d="M105.38,625.2h0l-2.12,0c.15.31.32.61.49.89a6,6,0,0,0,1,0H105l.69,0a60.7,60.7,0,0,1,13,.76A72.57,72.57,0,0,0,105.38,625.2Zm219,144.55a.76.76,0,0,1-.08.11l.15.15A1.11,1.11,0,0,0,324.38,769.75Z"/><path d="M324.38,769.75a.76.76,0,0,1-.08.11l.15.15A1.11,1.11,0,0,0,324.38,769.75Zm-60.71,20.89c-.46-4.8-3-13.26-3-13.26-10.87,0-20.61-.42-29.41-4.68a35.68,35.68,0,0,1-12.53-10.11c-.84,1.41-1.66,2.82-2.47,4.25a43.94,43.94,0,0,0,7.43,12.66A52.92,52.92,0,0,0,235.62,790a66.25,66.25,0,0,0,14.29,6.88,89.71,89.71,0,0,0,14.37,3.62C264.19,797.22,264,793.93,263.67,790.64Zm-14.42,8.06a67.24,67.24,0,0,1-14.42-7.51A54,54,0,0,1,223,780.07a45,45,0,0,1-7-12.72q-3.09,5.46-5.9,11c-3.26,6.41-6.16,13-9,19.62l-.51,1.18.06,0a94,94,0,0,0,15.62,4.21A103.31,103.31,0,0,0,232.5,805,111.65,111.65,0,0,0,260,802,82.28,82.28,0,0,1,249.25,798.7Zm-16.76,9.38A109.39,109.39,0,0,1,215.74,807c-2.81-.42-5.61-.94-8.38-1.6a79.21,79.21,0,0,0,7.33,5.55,74.53,74.53,0,0,0,15.44,7.85,72,72,0,0,0,15.56,3.84c.17,0,.34,0,.52.06l.87.11,4.38.33,4.4.08,4.41-.23c1-.13,1.93-.24,2.9-.35.46-4.74.94-9.44,1.08-14.13.07-1.72.1-3.44.09-5.17A114,114,0,0,1,232.49,808.08Zm318.28,65.33a8.75,8.75,0,0,0-4.33-4.93,7.6,7.6,0,0,0-5.58-.6l.12-1.48c.16-1.84.3-3.67.43-5.51l-.4-.06c-.43,1.79-.85,3.58-1.24,5.38a45.48,45.48,0,0,0-1,5.53,14,14,0,0,0,.62,5.94,9.71,9.71,0,0,0,1.54,2.79,7.84,7.84,0,0,0,1.17,1.21,6.47,6.47,0,0,0,1.52,1,5.68,5.68,0,0,0,3.85.38,4.48,4.48,0,0,0,2-1.18,6,6,0,0,0,1.12-1.71A9,9,0,0,0,550.77,873.41Zm-3.92,5.27a3,3,0,0,1-.24.67.78.78,0,0,1-.3.3,2,2,0,0,1-1.53,0,3.78,3.78,0,0,1-.86-.41,5.18,5.18,0,0,1-.82-.69,7.15,7.15,0,0,1-1.29-1.9,11.55,11.55,0,0,1-1.08-4.86,30.54,30.54,0,0,1,.08-3.3,9.61,9.61,0,0,1,4.06,2.31,7.38,7.38,0,0,1,2.07,3.77A8.6,8.6,0,0,1,546.85,878.68ZM353.24,589h-.05l.06.39h0ZM165.13,720.48h0l.08-.13Zm251.8-213.07-1-.4c0,.34,0,.68,0,1h1C416.94,507.82,416.93,507.62,416.93,507.41Z"/><path class="cls-5" d="M550.77,873.41a8.75,8.75,0,0,0-4.33-4.93,7.6,7.6,0,0,0-5.58-.6l.12-1.48c.16-1.84.3-3.67.43-5.51l-.4-.06c-.43,1.79-.85,3.58-1.24,5.38a45.48,45.48,0,0,0-1,5.53,14,14,0,0,0,.62,5.94,9.71,9.71,0,0,0,1.54,2.79,7.84,7.84,0,0,0,1.17,1.21,6.47,6.47,0,0,0,1.52,1,5.68,5.68,0,0,0,3.85.38,4.48,4.48,0,0,0,2-1.18,6,6,0,0,0,1.12-1.71A9,9,0,0,0,550.77,873.41Zm-3.92,5.27a3,3,0,0,1-.24.67.78.78,0,0,1-.3.3,2,2,0,0,1-1.53,0,3.78,3.78,0,0,1-.86-.41,5.18,5.18,0,0,1-.82-.69,7.15,7.15,0,0,1-1.29-1.9,11.55,11.55,0,0,1-1.08-4.86,30.54,30.54,0,0,1,.08-3.3,9.61,9.61,0,0,1,4.06,2.31,7.38,7.38,0,0,1,2.07,3.77A8.6,8.6,0,0,1,546.85,878.68Zm3.92-5.27a8.75,8.75,0,0,0-4.33-4.93,7.6,7.6,0,0,0-5.58-.6l.12-1.48c.16-1.84.3-3.67.43-5.51l-.4-.06c-.43,1.79-.85,3.58-1.24,5.38a45.48,45.48,0,0,0-1,5.53,14,14,0,0,0,.62,5.94,9.71,9.71,0,0,0,1.54,2.79,7.84,7.84,0,0,0,1.17,1.21,6.47,6.47,0,0,0,1.52,1,5.68,5.68,0,0,0,3.85.38,4.48,4.48,0,0,0,2-1.18,6,6,0,0,0,1.12-1.71A9,9,0,0,0,550.77,873.41Zm-3.92,5.27a3,3,0,0,1-.24.67.78.78,0,0,1-.3.3,2,2,0,0,1-1.53,0,3.78,3.78,0,0,1-.86-.41,5.18,5.18,0,0,1-.82-.69,7.15,7.15,0,0,1-1.29-1.9,11.55,11.55,0,0,1-1.08-4.86,30.54,30.54,0,0,1,.08-3.3,9.61,9.61,0,0,1,4.06,2.31,7.38,7.38,0,0,1,2.07,3.77A8.6,8.6,0,0,1,546.85,878.68Zm83.48-137.62a22,22,0,0,0-2.4-5.89,15.28,15.28,0,0,0-3.73-4.44,11.35,11.35,0,0,0-5.42-2.11,39.75,39.75,0,0,0-6.24-.21c3.3,7.78,5.47,15.88,7.83,23.82.78,2.69,1.62,5.4,2.33,8.16a13.59,13.59,0,0,0,6.82-6.75,15.92,15.92,0,0,0,1.47-6.19A22.24,22.24,0,0,0,630.33,741.06ZM550.77,873.41a8.75,8.75,0,0,0-4.33-4.93,7.6,7.6,0,0,0-5.58-.6l.12-1.48c.16-1.84.3-3.67.43-5.51l-.4-.06c-.43,1.79-.85,3.58-1.24,5.38a45.48,45.48,0,0,0-1,5.53,14,14,0,0,0,.62,5.94,9.71,9.71,0,0,0,1.54,2.79,7.84,7.84,0,0,0,1.17,1.21,6.47,6.47,0,0,0,1.52,1,5.68,5.68,0,0,0,3.85.38,4.48,4.48,0,0,0,2-1.18,6,6,0,0,0,1.12-1.71A9,9,0,0,0,550.77,873.41Zm-3.92,5.27a3,3,0,0,1-.24.67.78.78,0,0,1-.3.3,2,2,0,0,1-1.53,0,3.78,3.78,0,0,1-.86-.41,5.18,5.18,0,0,1-.82-.69,7.15,7.15,0,0,1-1.29-1.9,11.55,11.55,0,0,1-1.08-4.86,30.54,30.54,0,0,1,.08-3.3,9.61,9.61,0,0,1,4.06,2.31,7.38,7.38,0,0,1,2.07,3.77A8.6,8.6,0,0,1,546.85,878.68ZM324.38,769.75a.76.76,0,0,1-.08.11l.15.15A1.11,1.11,0,0,0,324.38,769.75Zm-91.89,38.33A109.39,109.39,0,0,1,215.74,807c-2.81-.42-5.61-.94-8.38-1.6a79.21,79.21,0,0,0,7.33,5.55,74.53,74.53,0,0,0,15.44,7.85,72,72,0,0,0,15.56,3.84c.17,0,.34,0,.52.06l.87.11,4.38.33,4.4.08,4.41-.23c1-.13,1.93-.24,2.9-.35.46-4.74.94-9.44,1.08-14.13.07-1.72.1-3.44.09-5.17A114,114,0,0,1,232.49,808.08Zm31.18-17.44c-.46-4.8-3-13.26-3-13.26-10.87,0-20.61-.42-29.41-4.68a35.68,35.68,0,0,1-12.53-10.11c-.84,1.41-1.66,2.82-2.47,4.25a43.94,43.94,0,0,0,7.43,12.66A52.92,52.92,0,0,0,235.62,790a66.25,66.25,0,0,0,14.29,6.88,89.71,89.71,0,0,0,14.37,3.62C264.19,797.22,264,793.93,263.67,790.64Zm-14.42,8.06a67.24,67.24,0,0,1-14.42-7.51A54,54,0,0,1,223,780.07a45,45,0,0,1-7-12.72q-3.09,5.46-5.9,11c-3.26,6.41-6.16,13-9,19.62l-.51,1.18.06,0a94,94,0,0,0,15.62,4.21A103.31,103.31,0,0,0,232.5,805,111.65,111.65,0,0,0,260,802,82.28,82.28,0,0,1,249.25,798.7Zm301.52,74.71a8.75,8.75,0,0,0-4.33-4.93,7.6,7.6,0,0,0-5.58-.6l.12-1.48c.16-1.84.3-3.67.43-5.51l-.4-.06c-.43,1.79-.85,3.58-1.24,5.38a45.48,45.48,0,0,0-1,5.53,14,14,0,0,0,.62,5.94,9.71,9.71,0,0,0,1.54,2.79,7.84,7.84,0,0,0,1.17,1.21,6.47,6.47,0,0,0,1.52,1,5.68,5.68,0,0,0,3.85.38,4.48,4.48,0,0,0,2-1.18,6,6,0,0,0,1.12-1.71A9,9,0,0,0,550.77,873.41Zm-3.92,5.27a3,3,0,0,1-.24.67.78.78,0,0,1-.3.3,2,2,0,0,1-1.53,0,3.78,3.78,0,0,1-.86-.41,5.18,5.18,0,0,1-.82-.69,7.15,7.15,0,0,1-1.29-1.9,11.55,11.55,0,0,1-1.08-4.86,30.54,30.54,0,0,1,.08-3.3,9.61,9.61,0,0,1,4.06,2.31,7.38,7.38,0,0,1,2.07,3.77A8.6,8.6,0,0,1,546.85,878.68Zm3.92-5.27a8.75,8.75,0,0,0-4.33-4.93,7.6,7.6,0,0,0-5.58-.6l.12-1.48c.16-1.84.3-3.67.43-5.51l-.4-.06c-.43,1.79-.85,3.58-1.24,5.38a45.48,45.48,0,0,0-1,5.53,14,14,0,0,0,.62,5.94,9.71,9.71,0,0,0,1.54,2.79,7.84,7.84,0,0,0,1.17,1.21,6.47,6.47,0,0,0,1.52,1,5.68,5.68,0,0,0,3.85.38,4.48,4.48,0,0,0,2-1.18,6,6,0,0,0,1.12-1.71A9,9,0,0,0,550.77,873.41Zm-3.92,5.27a3,3,0,0,1-.24.67.78.78,0,0,1-.3.3,2,2,0,0,1-1.53,0,3.78,3.78,0,0,1-.86-.41,5.18,5.18,0,0,1-.82-.69,7.15,7.15,0,0,1-1.29-1.9,11.55,11.55,0,0,1-1.08-4.86,30.54,30.54,0,0,1,.08-3.3,9.61,9.61,0,0,1,4.06,2.31,7.38,7.38,0,0,1,2.07,3.77A8.6,8.6,0,0,1,546.85,878.68Z"/><path class="cls-6" d="M583.48,781.84l-.62-3.53c-.22-1.18-.39-2.36-.69-3.52l-.81-3.5-.41-1.75c-.15-.57-.32-1.15-.49-1.72a108.25,108.25,0,0,0-4.59-13.57A60.25,60.25,0,0,0,569,741.84a42.37,42.37,0,0,0-4.65-5.35,48.66,48.66,0,0,0-5.49-4.52,65.65,65.65,0,0,0-12.63-6.82c-4.25-1.79-9.37-3.42-13.85-4.88l-11.9,28.46-24.52,58.64c-8.32,19.47-17.23,38.92-29.48,56.46a133.61,133.61,0,0,1-21.24,24l-3,2.64c-1,.85-2.13,1.63-3.19,2.45s-2.13,1.63-3.22,2.42-2.21,1.53-3.35,2.24a114.93,114.93,0,0,1-14.09,7.77,150.58,150.58,0,0,1-30.37,10.3,174.79,174.79,0,0,1-31.8,4.26,179.87,179.87,0,0,1-32.05-1.59c-4.18-.62-8.35-1.39-12.48-2.31a25.25,25.25,0,0,0,8.61,7,54.13,54.13,0,0,0,13.67,4.55,269.78,269.78,0,0,0,28.75,3.9c19.3,1.66,38.69,1.66,58.07,1.41s38.84,0,57.82-3.27A127.26,127.26,0,0,0,579.8,838.59a131.7,131.7,0,0,0,4.87-28.16A127.29,127.29,0,0,0,583.48,781.84Zm-32.94,98.28a6,6,0,0,1-1.12,1.71,4.48,4.48,0,0,1-2,1.18,5.68,5.68,0,0,1-3.85-.38,6.47,6.47,0,0,1-1.52-1,7.84,7.84,0,0,1-1.17-1.21,9.71,9.71,0,0,1-1.54-2.79,14,14,0,0,1-.62-5.94,45.48,45.48,0,0,1,1-5.53c.39-1.8.81-3.59,1.24-5.38l.4.06c-.13,1.84-.27,3.67-.43,5.51l-.12,1.48a7.6,7.6,0,0,1,5.58.6,8.75,8.75,0,0,1,4.33,4.93A9,9,0,0,1,550.54,880.12Z"/><path class="cls-7" d="M340.57,725.87a76,76,0,0,1-15.22,42.6,149.44,149.44,0,0,0-7.4-14.55c2.65-1.82,3.93-6.3,5.32-9.14a57.26,57.26,0,0,0,3.4-9.12,52.87,52.87,0,0,0,1.74-9.59,69,69,0,0,0,0-9.75,51.49,51.49,0,0,0-4.85-18.74c-.26-.53-.52-1.05-.8-1.57,1.95-2.13,3.25-6.63,3.4-9.44a25.64,25.64,0,0,0,0-2.63,2.26,2.26,0,0,1,0-.26C335.4,695.4,341,711,340.57,725.87Z"/><path class="cls-8" d="M563.26,695.31a44.91,44.91,0,0,1-2.6,10.62c-2.55,6.82-6.28,13.3-10.14,19.68-1.29-.55-2.6-1.06-3.91-1.54-4.27-1.58-9.42-3.48-13.89-4.73,4.08-9.71,8.47-19.42,15-27.7l-.32-.26c-6.73,8.28-11.27,18-15.49,27.72v0l-.2.47-12.41,28.67-25.25,58.32c-8.49,19.36-17.54,38.59-29.77,55.74a131.14,131.14,0,0,1-21,23.29l-3,2.53c-1,.83-2.09,1.57-3.13,2.36s-2.09,1.57-3.15,2.32-2.16,1.47-3.27,2.16A114.31,114.31,0,0,1,417,902.4a147.09,147.09,0,0,1-29.82,9.72A171,171,0,0,1,356,915.91a177.59,177.59,0,0,1-61.84-9,171.54,171.54,0,0,1-28.83-12.41,121.8,121.8,0,0,1-25.59-18,73.61,73.61,0,0,1-5.36-5.67c-.85-1-1.64-2-2.43-3a12,12,0,0,1-1.81-3.11c-.76-2.07.08-4.51.93-7l2.53-7.51c3-8.74,6.38-17.39,11.19-25.29.72.05,1.43.08,2.15.1l4.53,0,4.5-.39,4.45-.71c.9-.21,1.79-.44,2.69-.66l-.3,3.13a105.45,105.45,0,0,0-.3,18.4c.94,10.24,4.72,20.66,12.9,27.33a25,25,0,0,0,18.08,5.78c9.19-1,16.87-7.71,21.84-15.49,12.38-19.4,17.77-41.92,12.89-64.68a4.4,4.4,0,0,1,.09-3.16c.58-1,1.81-1.34,2.91-1.66,10.38-3.07,18.52-11.67,23-21.53s5.61-20.92,5.51-31.75c-1.17,9.63-2.4,19.43-6.41,28.25a48.35,48.35,0,0,1-25.16,24.35l-1.92-20.06a6.15,6.15,0,0,1,.19-3,6.78,6.78,0,0,1,1.92-2.29c8.19-7.42,13.17-18,14.83-28.94s.15-22.18-3.18-32.72c-2.59-8.19-7.15-17.41-13.84-22.84-.12-1.45-.33-2.9-.58-4.33a115.19,115.19,0,0,0-3.93-16.56,180.89,180.89,0,0,0-13.78-31.12c-2.71-5-5.55-9.89-8.45-14.76l0-.06c1.64.41,3.27.85,4.88,1.36,1.21.36,2.41.76,3.61,1.17s2.38.82,3.55,1.27,2.31,1,3.44,1.52,2.25,1,3.35,1.36a23,23,0,0,1,6.42,3.17l.35-.2a7.1,7.1,0,0,0-1.77-3.88,12,12,0,0,0-3.28-2.7c-2.42-1.45-5.06-1.73-7.59-2.34a66.61,66.61,0,0,0-7.68-1.32c-2-.2-3.92-.36-5.89-.42-1.39-2.27-2.78-4.54-4.23-6.79l.93-.49c1.24-.59,2.45-1.18,3.65-1.79s2.43-1.14,3.65-1.69l3.68-1.59c1.25-.49,2.47-1,3.7-1.53s2.47-1,3.7-1.54,2.49-1,3.75-1.49l3.83-1.31a151.45,151.45,0,0,1,15.76-4c4.89-1.07,11.09-1.3,16.24-2.06l.27,1.65a16.56,16.56,0,0,0-11,5.69,16.4,16.4,0,0,0-4.26,12.61,20.44,20.44,0,0,0,2.88,8c4.19,7,11.79,12.37,21.42,15.06,8.73,2.45,18.24,2.54,25.87,2.62h1.65a24.39,24.39,0,0,0,9.7-1.52c7.34-3.12,11.32-12.62,8.69-20.75-2.29-7.07-9.9-12.73-18-14.44l1.24-11.74a7.19,7.19,0,0,1,3-.38c2.56.19,5.13.41,7.71.49s5.15,0,7.73-.07,5.15-.33,7.71-.58l3.83-.52c1.73.77,3.42,1.63,5.05,2.56.65.39,1.3.79,1.94,1.21l1.85,1.33c.6.46,1.21.9,1.85,1.31s1.24.85,1.88,1.25,1.27.83,1.93,1.22,1.28.83,2,1.22,1.32.82,2,1.22a22.68,22.68,0,0,0,2.13,1.19l.29-.27a20,20,0,0,0-1.13-2.21c-.45-.68-.91-1.37-1.41-2s-1-1.25-1.6-1.86-1.17-1.14-1.78-1.69-1.27-1-1.94-1.49-1.4-.85-2.11-1.24l-2.21-1.06c-.75-.31-1.5-.64-2.23-1-.46-.2-.93-.4-1.4-.58,2.11-.44,4.2-.94,6.28-1.46l7.4-2.2c2.44-.83,4.89-1.63,7.33-2.42l7.24-2.64,7.12-2.92c2.34-1.06,4.65-2.17,7-3.25s4.55-2.37,6.82-3.55c1.4-.79,2.79-1.59,4.17-2.42,4.89,1.39,9.77,2.82,14.5,4.59a63,63,0,0,1,15.31,8,50.68,50.68,0,0,1,20,44.71,65.66,65.66,0,0,1-1.21,8.37,72.54,72.54,0,0,1-2.26,8.16,68.12,68.12,0,0,1-7.49,15.28,47.54,47.54,0,0,1-9.57,11.08,21.42,21.42,0,0,1-3-3.61c-4-6.06-5.84-13.71-10.2-20.24a54.93,54.93,0,0,0-7.64-8.64c-2.74-2.64-5.59-5.18-8.58-7.55-6-4.7-12.71-8.69-20.14-10.51l-.1.39c7.28,2.06,13.76,6.21,19.48,11,2.87,2.44,5.59,5,8.22,7.75a54.08,54.08,0,0,1,7.09,8.61,61.76,61.76,0,0,1,4.77,10.08,63.28,63.28,0,0,0,4.92,10.47,22.18,22.18,0,0,0,8.71,8.17A32,32,0,0,0,524.54,674a86.26,86.26,0,0,0,11.57.19,91.12,91.12,0,0,1,11.12.19,33.71,33.71,0,0,1,5.27.89,20.87,20.87,0,0,1,4.79,1.82,9.45,9.45,0,0,1,3.42,3.13,14.72,14.72,0,0,1,1.95,4.56A30.94,30.94,0,0,1,563.26,695.31Z"/><path class="cls-9" d="M264.28,800.51a89.71,89.71,0,0,1-14.37-3.62A66.25,66.25,0,0,1,235.62,790a52.92,52.92,0,0,1-11.89-10.51,43.94,43.94,0,0,1-7.43-12.66c.81-1.43,1.63-2.84,2.47-4.25A35.68,35.68,0,0,0,231.3,772.7c8.8,4.26,18.54,4.68,29.41,4.68,0,0,2.5,8.46,3,13.26C264,793.93,264.19,797.22,264.28,800.51Z"/><path class="cls-10" d="M264.34,803.29c0,1.73,0,3.45-.09,5.17-.14,4.69-.62,9.39-1.08,14.13-1,.11-1.94.22-2.9.35l-4.41.23-4.4-.08-4.38-.33-.87-.11c-.18,0-.35,0-.52-.06a72,72,0,0,1-15.56-3.84,74.53,74.53,0,0,1-15.44-7.85,79.21,79.21,0,0,1-7.33-5.55c2.77.66,5.57,1.18,8.38,1.6a109.39,109.39,0,0,0,16.75,1.13A114,114,0,0,0,264.34,803.29Z"/><path class="cls-11" d="M260,802a111.65,111.65,0,0,1-27.54,3,103.31,103.31,0,0,1-16.19-1.54,94,94,0,0,1-15.62-4.21l-.06,0,.51-1.18c2.81-6.64,5.71-13.21,9-19.62q2.82-5.6,5.9-11a45,45,0,0,0,7,12.72,54,54,0,0,0,11.81,11.12,67.24,67.24,0,0,0,14.42,7.51A82.28,82.28,0,0,0,260,802Z"/><path d="M218.24,761.81a.05.05,0,0,0,0,.05v0Z"/><path d="M135,535.85l-.15,0a.09.09,0,0,1,0,0Z"/><path d="M135,535.85l-.15,0a.09.09,0,0,1,0,0Z"/><path d="M324.45,770l-.15-.15a.76.76,0,0,0,.08-.11A1.11,1.11,0,0,1,324.45,770Z"/><path d="M550.77,873.41a8.75,8.75,0,0,0-4.33-4.93,7.6,7.6,0,0,0-5.58-.6l.12-1.48c.16-1.84.3-3.67.43-5.51l-.4-.06c-.43,1.79-.85,3.58-1.24,5.38a45.48,45.48,0,0,0-1,5.53,14,14,0,0,0,.62,5.94,9.71,9.71,0,0,0,1.54,2.79,7.84,7.84,0,0,0,1.17,1.21,6.47,6.47,0,0,0,1.52,1,5.68,5.68,0,0,0,3.85.38,4.48,4.48,0,0,0,2-1.18,6,6,0,0,0,1.12-1.71A9,9,0,0,0,550.77,873.41Zm-3.92,5.27a3,3,0,0,1-.24.67.78.78,0,0,1-.3.3,2,2,0,0,1-1.53,0,3.78,3.78,0,0,1-.86-.41,5.18,5.18,0,0,1-.82-.69,7.15,7.15,0,0,1-1.29-1.9,11.55,11.55,0,0,1-1.08-4.86,30.54,30.54,0,0,1,.08-3.3,9.61,9.61,0,0,1,4.06,2.31,7.38,7.38,0,0,1,2.07,3.77A8.6,8.6,0,0,1,546.85,878.68Z"/><path class="cls-9" d="M546.85,878.68a3,3,0,0,1-.24.67.78.78,0,0,1-.3.3,2,2,0,0,1-1.53,0,3.78,3.78,0,0,1-.86-.41,5.18,5.18,0,0,1-.82-.69,7.15,7.15,0,0,1-1.29-1.9,11.55,11.55,0,0,1-1.08-4.86,30.54,30.54,0,0,1,.08-3.3,9.61,9.61,0,0,1,4.06,2.31,7.38,7.38,0,0,1,2.07,3.77A8.6,8.6,0,0,1,546.85,878.68Z"/><path class="cls-12" d="M631,747.45a15.92,15.92,0,0,1-1.47,6.19,13.59,13.59,0,0,1-6.82,6.75c-.71-2.76-1.55-5.47-2.33-8.16-2.36-7.94-4.53-16-7.83-23.82a39.75,39.75,0,0,1,6.24.21,11.35,11.35,0,0,1,5.42,2.11,15.28,15.28,0,0,1,3.73,4.44A22.58,22.58,0,0,1,631,747.45Z"/><path d="M273.92,953.11a0,0,0,0,0,0,0h0S273.9,953.1,273.92,953.11Z"/><path class="cls-12" d="M273.92,953.11a0,0,0,0,0,0,0h0S273.9,953.1,273.92,953.11Z"/><path d="M273.92,953.11a0,0,0,0,0,0,0h0S273.9,953.1,273.92,953.11Z"/><path d="M103.65,421.57l-.74.17c1.59,3.26,3.21,6.51,4.89,9.73l1.19-.19C107.16,428.06,105.4,424.82,103.65,421.57ZM674.18,800.7c-.16-6.56-2.48-16.53-4.56-23.71v0c-.19-1.15-.43-2.29-.69-3.42a125.07,125.07,0,0,0-7.18-20,73.23,73.23,0,0,0-4.87-9.64,27.74,27.74,0,0,0-7.6-8.12A25.48,25.48,0,0,0,639,731.42a19.64,19.64,0,0,0-5.57-.17,17.68,17.68,0,0,0-2.8.61,12.54,12.54,0,0,0-4.25-4.45,12,12,0,0,0-7.6-1.6,17.42,17.42,0,0,0-6.51,2c-.49-1.13-1-2.24-1.54-3.35a63,63,0,0,0-8-12.66,37.3,37.3,0,0,0-11.84-9.55A31.06,31.06,0,0,0,576,699.05a24.61,24.61,0,0,0-10.75,2.81,41.37,41.37,0,0,0,1.49-6.07,33.66,33.66,0,0,0-.22-12,18.48,18.48,0,0,0-2.38-5.89,13.52,13.52,0,0,0-4.84-4.49,22.91,22.91,0,0,0-5.84-2.14,36.76,36.76,0,0,0-5.93-.88c-7.91-.5-15.43.93-22.73.37a28.89,28.89,0,0,1-10.43-2.52,17.72,17.72,0,0,1-4.18-2.76,39.55,39.55,0,0,0,11.18-10,56.84,56.84,0,0,0,5.07-7.42c.81-1.43,1.57-2.89,2.26-4.38a83.69,83.69,0,0,0,16.45,1,90.61,90.61,0,0,0,18.12-2.74l4.45-1.24,4.39-1.43q2.16-.84,4.28-1.75c.45-.22.89-.44,1.33-.68A15.18,15.18,0,0,0,580,646.2a10.51,10.51,0,0,0,9.8,4.92,8.92,8.92,0,0,0,5.4-2.22,8.66,8.66,0,0,0,2.7-5.28,12.6,12.6,0,0,0-.69-5.82,15.63,15.63,0,0,0-1.26-2.72c1.53.35,3.08.73,4.66,1a31.36,31.36,0,0,0,7.76.82,12.54,12.54,0,0,0,4.1-.86c.71-.29,1.22-.61,1.84-.93s1.14-.71,1.7-1.1a16.92,16.92,0,0,0,3-2.81,15.52,15.52,0,0,0,2.15-3.52,16.53,16.53,0,0,0,1.18-3.9c.11-.66.21-1.32.26-2s.1-1.28.11-2a24.5,24.5,0,0,0-1.57-7.71,26.36,26.36,0,0,0-1.6-3.56,12.58,12.58,0,0,0-2.43-3.15,14.77,14.77,0,0,0-7.07-3.27l-.24.9a10.51,10.51,0,0,1,6.21,3.4,12.62,12.62,0,0,1,1.79,3,24.57,24.57,0,0,1,1.18,3.38,23.52,23.52,0,0,1,1,7,18.6,18.6,0,0,1-1.6,6.65,14.4,14.4,0,0,1-4.17,5.17c-.45.33-.92.66-1.4,1s-1,.63-1.47.83a9.61,9.61,0,0,1-3.15.81,27.8,27.8,0,0,1-7.1-.47c-2.42-.4-4.84-1-7.37-1.35l-3-.47,2,2.23a12.55,12.55,0,0,1,3.45,9.24,7,7,0,0,1-2,4.35,7.66,7.66,0,0,1-4.46,2,9.72,9.72,0,0,1-5-.75,9.82,9.82,0,0,1-4-3.31,14.67,14.67,0,0,1-2.51-9.17c.81-.42,1.61-.85,2.41-1.28l3.91-2.47c1.24-.92,2.49-1.81,3.7-2.77s2.32-2,3.45-3,2.13-2.22,3.12-3.4l-.26-.3c-1.37.7-2.67,1.47-4,2.24s-2.64,1.43-3.92,2.18-2.63,1.38-3.94,2.07l-4,2c-1.34.61-2.68,1.23-4,1.89s-2.69,1.22-4,1.86l-4.07,1.75-4.17,1.52A91.33,91.33,0,0,1,529,643.09c.5-1.05,1-2.13,1.39-3.21A61.32,61.32,0,0,0,533,631.2a54.79,54.79,0,0,0,.66-18.06,51.37,51.37,0,0,0-1.85-8.85,54.76,54.76,0,0,0-9.56-18.49c4.5.25,9,.42,13.52.63L550,587c4.75.15,9.51.56,14.26.36s9.35-.79,14,.52l.13-.27a15.73,15.73,0,0,0-6.86-2.63,61.58,61.58,0,0,0-7.2-.62c-4.76-.24-9.51.13-14.27.24l-5.14.14a3.19,3.19,0,0,0,.89.38h-1a2.53,2.53,0,0,1-.92-.36h0l-8.08.22c-4.61.17-9.21.31-13.82.51a48.39,48.39,0,0,0-10.68-9.82,64.83,64.83,0,0,0-16.05-7.5c-4.7-1.55-9.48-2.72-14.27-3.81a137.84,137.84,0,0,0,20.3-14.63l-.06-.07a93.67,93.67,0,0,0,12.43,1.6,63,63,0,0,0,17.66-1.48,44.55,44.55,0,0,0,16.34-7.39,20.68,20.68,0,0,0,6.15-7.13,14.11,14.11,0,0,0,1.1-9.82,11,11,0,0,0-2.56-4.61,14.11,14.11,0,0,0-4.11-2.94,76.34,76.34,0,0,0-8.43-3.09c-5.57-1.76-11.18-3.41-16.85-4.81-3.42-.86-6.85-1.65-10.31-2.34,2.12-6.1,4.11-12.25,6.1-18.39L525,469.82c2.15-6.43,4.34-12.9,7-19a62.59,62.59,0,0,1,4.61-8.74,39.07,39.07,0,0,1,3.45-4.57l3.9-1c11.36-3,22.72-6.11,34-9.41s22.59-6.75,33.79-10.47,22.24-7.8,33.29-12.3c5.53-2.37,11.18-5.1,16.08-9.35a30.59,30.59,0,0,0,6.35-7.48,25.26,25.26,0,0,0,3.31-9.38,32.83,32.83,0,0,0-3.32-18.75,40.54,40.54,0,0,0-5.11-7.89,56.35,56.35,0,0,0-6.44-6.57,108.21,108.21,0,0,0-14.67-10.34l-15.12-9.07c-9.58-5.76-19.26-11.82-28.91-17.52,6.44-15.61,7.37-32.83,7.73-49.23.6-27.69-.79-56.5-15-79.62-6.07-9.9-13.33-16.51-21.58-19.65l-.71-.25c.63-3.58,1.2-7.16,1.53-10.82a56.28,56.28,0,0,0,.26-6.77,29.84,29.84,0,0,0-.9-6.94c-.17-.58-.37-1.16-.55-1.74l-.64-1.64c-.46-1.07-1-2.14-1.52-3.17-.14-.24-.28-.48-.41-.72h0a.05.05,0,0,0,0,0c-7.33-13.48-34.92-32.4-50.93-34.94-8.55-1.35-17.27-1.51-25.71-1.66-6.26-.11-12.73-.23-19-.84a18.9,18.9,0,0,1-6.63-1.51c-2.79-1.41-4.8-4.21-7-7.45l-2.39-3.61c-8.4-12.72-17-25.75-28.42-35.28a31.49,31.49,0,0,0,2.29-2.88,23.09,23.09,0,0,0,1.95-3.45,28.36,28.36,0,0,0,2-7.33,61.78,61.78,0,0,0-.18-14.4h-.7a75.76,75.76,0,0,1-2.54,13.65,23.94,23.94,0,0,1-2.73,5.9,20.64,20.64,0,0,1-4.21,4.71l-.4.35a60,60,0,0,0-10-5.75,63.65,63.65,0,0,0-11.78-3.93c1.07-.77,2.15-1.59,3.2-2.51A17.65,17.65,0,0,0,407,20a15.21,15.21,0,0,0-1.77-14.6l-.6.36a13.79,13.79,0,0,1-.77,12.7,13.63,13.63,0,0,1-4.41,4.33,64.79,64.79,0,0,1-6,3.32c-.84.44-1.71.88-2.59,1.37a142.82,142.82,0,0,0-16.49-1.07,270.87,270.87,0,0,0-33.22,1.53c.06-.33.12-.67.16-1a36.71,36.71,0,0,0,.1-7.15c-.14-2.24-.3-4.52-.6-6.8a38.63,38.63,0,0,0-1.49-6.77A22.68,22.68,0,0,0,336.26,0l-.61.34a29.87,29.87,0,0,1,1.68,12.76c-.1,2.16-.32,4.33-.56,6.53a33.24,33.24,0,0,1-.93,6.13,10.64,10.64,0,0,1-1.13,2.49c-.09.15-.18.3-.28.45A273,273,0,0,0,306.25,34c-4.86,1.18-9.66,2.49-14.38,3.88.16-.35.33-.69.52-1a55.56,55.56,0,0,0,3.8-7,15.39,15.39,0,0,0,.9-4.38,17.49,17.49,0,0,0-.39-4.3,25.25,25.25,0,0,0-3.26-7.4,55.16,55.16,0,0,0-4.63-6.22l-.58.4a68.44,68.44,0,0,1,3.26,6.82,23.3,23.3,0,0,1,1.75,6.94A13.3,13.3,0,0,1,293,25a11.26,11.26,0,0,1-1.1,2.95,56.86,56.86,0,0,1-4.26,5.9,30.93,30.93,0,0,0-3.6,6.44h0c-9.49,3-18.64,6.32-27.4,9.56-4,1.5-8.14,3-12.25,4.68a28.75,28.75,0,0,1-.41-3.56c0-.48,0-1,0-1.45s.1-.95.17-1.43.2-.94.35-1.42.37-1,.6-1.56a30.49,30.49,0,0,0,1.43-3.73A11.63,11.63,0,0,0,247,39a10.78,10.78,0,0,0-.15-2.41,9.86,9.86,0,0,0-1.94-4.14A16.86,16.86,0,0,0,242,29.63c-2-1.58-4-2.85-5.88-4.29A11.74,11.74,0,0,1,231.94,20l-.69.13a10.11,10.11,0,0,0,1.15,3.65,17.19,17.19,0,0,0,2.2,3.12c1.65,1.9,3.49,3.54,5,5.25s2.61,3.49,2.6,5.09a5.16,5.16,0,0,1-.51,2.42,27.38,27.38,0,0,1-1.56,2.85c-.32.53-.65,1.09-1,1.71s-.62,1.3-.92,2-.48,1.38-.69,2.08-.34,1.42-.46,2.15a15.79,15.79,0,0,0,.53,6.84,179.79,179.79,0,0,0-21.74,10.85c0-.21,0-.41-.07-.62a27.2,27.2,0,0,0-1.89-7L211.08,54a60.53,60.53,0,0,0-3.17-6.55,29.78,29.78,0,0,0-4.51-6,20.15,20.15,0,0,0-6.16-4.21,14.21,14.21,0,0,0-7.18-1.16v.7a15.71,15.71,0,0,1,10.68,7,26,26,0,0,1,3,5.73,58.76,58.76,0,0,1,2.06,6.34c.59,2.19,1.06,4.49,1.49,6.71A61.29,61.29,0,0,0,209,69l.93,3c-11.87,8.54-24,23.38-34.83,39.25a18.57,18.57,0,0,0-2.08-1.6,20.05,20.05,0,0,0-3.54-1.88c-.61-.26-1.26-.46-1.88-.66l-1.73-.46a43.22,43.22,0,0,1-6.49-1.9c-4-1.63-7-4.2-7.33-8.49a41.73,41.73,0,0,1,.2-6.9,30.18,30.18,0,0,0,.05-3.69,15.12,15.12,0,0,0-.72-3.66l-.68.17a18.55,18.55,0,0,1-.81,6.84,40.91,40.91,0,0,0-1.54,7.27,13.62,13.62,0,0,0,.33,4.13,13.43,13.43,0,0,0,1.77,3.94,17.33,17.33,0,0,0,2.88,3.09,25.54,25.54,0,0,0,3.32,2.29c2.26,1.31,4.54,2.43,6.74,3.45l6,2.55c.66.29,1.3.6,1.93.92-16.69,25.53-29.53,52.21-32.05,58.88-34.7,17.31-59,53.3-62,92-.09,1.38-2,35.52.24,56.86a38.83,38.83,0,0,1,5-1.39c-2.08-21-.23-54.81-.21-55.11,2.89-37.29,26.49-72,60.12-88.33l1-.5.29-1.1c1-3.78,14.19-31.9,31.67-58.64a9.67,9.67,0,0,1,1.38,1.47,9.93,9.93,0,0,1,1.46,3l.69.1a7.59,7.59,0,0,0,.91-4,10.74,10.74,0,0,0-1.26-4.18q-.17-.3-.36-.6c10.23-15.15,21.74-29.41,33-38,.42,1.56.82,3.18,1.26,4.92l.68.12A17.73,17.73,0,0,0,215.82,75q.08-.52.12-1a168.08,168.08,0,0,1,23.84-12.15,16.57,16.57,0,0,0,3.52,3.85,12.54,12.54,0,0,0,7.53,2.89l.26-.65A24,24,0,0,1,247,62.36a23.24,23.24,0,0,1-1.34-3c4.27-1.71,8.54-3.32,12.75-4.88,7.79-2.88,15.89-5.81,24.25-8.53a18.2,18.2,0,0,0,.06,4,20.66,20.66,0,0,0,2.73,8.15,12,12,0,0,0,2.93,3.45,5.55,5.55,0,0,0,4.33,1.3l.11-.69a5.29,5.29,0,0,1-2-2.66,14.39,14.39,0,0,1-.76-3.17,33.43,33.43,0,0,1-.36-6.73,59.61,59.61,0,0,1,.57-6.1c5.62-1.72,11.35-3.31,17.15-4.72q11.9-2.88,24-4.66l-.09.24a15.71,15.71,0,0,0-.77,3.88,17.43,17.43,0,0,0,1.17,7.61,13.42,13.42,0,0,0,4.46,5.93l.6-.35c-.09-1.21-.21-2.31-.24-3.39s0-2.11,0-3.11a29.61,29.61,0,0,1,.89-5.67c.25-.88.49-1.75.77-2.6s.55-1.69.94-2.69l.33-.91a265.62,265.62,0,0,1,34.77-1.75c3.4.06,7,.18,10.61.47a15.25,15.25,0,0,0-3.05,5.05,17.59,17.59,0,0,0-1,8.16,13.47,13.47,0,0,0,3,7.28l.66-.23a32,32,0,0,1,1.24-6.74,25.69,25.69,0,0,1,2.43-5.56,34.72,34.72,0,0,1,3.29-4.68,20.5,20.5,0,0,1,2.18-2.2,62.49,62.49,0,0,1,15.14,4.49,55.15,55.15,0,0,1,8.32,4.7,18,18,0,0,0-1.38,1.73A16,16,0,0,0,413,51.68a24.44,24.44,0,0,0,.73,7.7,26.6,26.6,0,0,0,2.85,6.93l.69-.1a63,63,0,0,0,1.4-7.1c.37-2.26.75-4.4,1.25-6.36a40,40,0,0,1,1.8-5.42,10.38,10.38,0,0,1,.61-1.26c10.8,9.1,19.13,21.71,27.26,34l2.4,3.62c2,3,4.67,7,8.87,9.15a23.69,23.69,0,0,0,8.39,2c6.47.63,13.05.75,19.4.86,8.27.15,16.81.3,25,1.6,8.65,1.37,22,8.31,32.7,16.23a41.38,41.38,0,0,0-10.63-.32c-2.27.19-4.49.47-6.69.77s-4.44.64-6.67,1.14a45.38,45.38,0,0,0-6.63,1.91,30.87,30.87,0,0,0-6.15,3.24c-1.85,1.33-3.54,2.72-5.35,3.88a10.86,10.86,0,0,1-6,2,8.33,8.33,0,0,0,3.38.18,15.09,15.09,0,0,0,3.31-.94c2.13-.87,4.06-2,6-3a27.27,27.27,0,0,1,5.9-2.21,46.28,46.28,0,0,1,6.25-1.19c2.13-.25,4.29-.44,6.48-.6s4.38-.35,6.51-.44a35.8,35.8,0,0,1,12.25,1.12c7.57,2.26,13.66,9,16.74,16.58a32.69,32.69,0,0,1,1.39,6.1c.29,2.12.4,4.29.52,6.48.14,3.06-.94,6.95-1.18,10.27-8.38-2.39-18.17-1.56-27.89,2.41a61.17,61.17,0,0,0-34.37,36.5c-3.22,9.46-4,19.5-4.37,28.93-1.5,38.23,6.72,74.73,22.59,100.64,1.41-.27,2.84-.51,4.3-.66-16-25.32-24.39-61.66-22.89-99.82.35-9.14,1.11-18.83,4.15-27.8a57.14,57.14,0,0,1,32.1-34.09c9.8-4,19.59-4.54,27.55-1.52,7.4,2.82,14,8.87,19.59,18,14.32,23.34,14.93,52.21,14.38,77.43-.38,17.2-1.38,35.32-8.9,51.11-10.31,21.65-26.89,31.31-38.9,31.35a23.54,23.54,0,0,1,1,2.58c.15.46.28.92.39,1.39,17.75-.82,33.35-17.24,41.15-33.6q.5-1.05,1-2.1c9.14,6.24,18.8,12.47,27.92,18.61l14.59,9.85a111.56,111.56,0,0,1,13.63,10.55,41.21,41.21,0,0,1,9.77,13.26,27.29,27.29,0,0,1,2.27,15.5,21,21,0,0,1-7.95,12.72c-4.13,3.32-9.22,5.72-14.52,7.8-43.57,16.25-89.43,27-134.76,38.54-11.31,2.74-22.64,5-34.12,6.79s-23,3-34.65,3.92c-23.22,1.84-46.6,2.22-70,2-11.71-.09-23.44-.28-35.17-.5s-23.31-.54-34.6-2.42a123.36,123.36,0,0,1-61.19-29.14l-2.23-2c3.56-1.73,7.11-3.47,10.66-5.26,4.26-2.16,8.54-4.33,12.74-6.86A75.44,75.44,0,0,0,244.74,406a106.21,106.21,0,0,0-13.49,5.44c-4.3,2.11-8.79,4.43-12.56,7.89a21.75,21.75,0,0,0-4.77,6,12.78,12.78,0,0,0-1.37,7.39,16.14,16.14,0,0,1,3.4-6,27.08,27.08,0,0,1,5.16-4.32,93.22,93.22,0,0,1,11.58-6.11l.2,2.95A48.41,48.41,0,0,0,235,430.42a61.73,61.73,0,0,0,4.42,10.35c3.5,6.56,7.76,12.45,11.74,18.35,8,11.88,16.3,23.73,25.53,34.87s19.39,21.62,31,30.36a131.49,131.49,0,0,0,18.39,11.7,112.42,112.42,0,0,0,20.2,8.29,97,97,0,0,0,21.51,3.79,109.63,109.63,0,0,0,21.74-1c14.37-2,28.23-6.09,41.91-10.35s27.29-8.75,41.28-11.61,28.43-3.85,42.44-1l.19-.88a91.65,91.65,0,0,0-21.48-2c-1.71,0-3.41.11-5.11.22,2.25-25.78,11.24-54.13,24.39-77.12,6.7-1.65,13.34-3.37,20-5.12l-.32.57a65.87,65.87,0,0,0-4.25,9.61c-1.17,3.27-2.15,6.56-3.09,9.84s-1.87,6.56-2.75,9.85l-5.22,19.73c-1.64,6.24-3.28,12.49-5.05,18.69q-3.37-.68-6.79-1.22l-.1.39c5.48,2,11,3.94,16.44,5.88s10.92,3.89,16.36,5.91L542.5,520a36.6,36.6,0,0,1,3.82,1.54A8.16,8.16,0,0,1,551,526.5a10.37,10.37,0,0,1-.5,7.19,17.33,17.33,0,0,1-4.94,6.14,41.77,41.77,0,0,1-15,7.38,60.56,60.56,0,0,1-16.94,2c-11.52-.13-22.91-2.94-34.19-5.66l-.11.38c6.9,2.06,13.87,4.1,21,5.52A155.64,155.64,0,0,1,474.53,564c-2.31,1-4.6,2-6.91,2.95s-4.68,1.8-7,2.66l-7.1,2.4-7.19,2.13c-2.42.61-4.85,1.21-7.27,1.78l-7.35,1.43c-2.45.42-4.9.84-7.34,1.34l-3.67.65L417,580c-2.45.45-4.91.87-7.36,1.36s-4.93.81-7.4,1.28-5,.79-7.46,1.24-5.52-.4-8.05.15l2.5,28,1.05-9.9c7,1.43,13.5,6.41,15.46,12.44,2.17,6.71-1,14.52-7,17.06-3.15,1.34-6.87,1.3-10.15,1.27-9.48-.09-17.36-.34-25.09-2.51-8.88-2.48-15.86-7.35-19.65-13.71a17.3,17.3,0,0,1-2.48-6.85,14.14,14.14,0,0,1,12.78-15l.52,3.21,1.89-15.58,10.51,1.67.17-.68c-26.19-8.26-53.28-13.19-79.82-19.14-9.95-2.22-19.85-4.53-29.65-7.13.59,1.62,1.14,3.24,1.66,4.88q.52,1.64,1,3.3c8.47,2.27,17,4.16,25.58,5.81,6.76,1.27,13.51,2.43,20.27,3.55s13.52,2.16,20.28,3.13q12.74,1.94,25.47,3.9l1.17,7.16q-8.19.42-16.35,1.37a154.61,154.61,0,0,0-16.3,2.9l-4,1-4,1.14c-1.33.43-2.64.92-4,1.42s-2.55,1.16-3.81,1.76-2.44,1.39-3.65,2.1-2.33,1.57-3.45,2.4-2.17,1.78-3.22,2.69l-.72.72c-1.14-1.74-2.34-3.46-3.62-5.15a50.67,50.67,0,0,0-12.37-12.07,39.28,39.28,0,0,0-3.79-2.15,34.86,34.86,0,0,0-4-1.63,26.23,26.23,0,0,0-6.16-1.2l0,.64a25.41,25.41,0,0,1,3.44,1c.23.07.45.16.68.24a31.64,31.64,0,0,1,4.66,2.23c.54.32,1.08.65,1.62,1l.78.53c.53.35,1,.73,1.54,1.11a54.59,54.59,0,0,1,11.17,12.11c1.61,2.27,3.14,4.61,4.66,7l4.56,7.11c3.08,4.73,6.06,9.51,8.89,14.37A179.32,179.32,0,0,1,320.2,662a114.23,114.23,0,0,1,4.46,16.25,35.57,35.57,0,0,1,.94,8.32c-.05,2.61-1.79,6-3.53,8.15a41.48,41.48,0,0,0-10.37-12.1l-.19.23a42.57,42.57,0,0,1,10.72,15.38,49.34,49.34,0,0,1,3.82,18.23c.16,6.25-1,12.41-2.29,18.49-.32,1.53-.71,3.05-1.11,4.56s-.84,3-1.33,4.49a22.41,22.41,0,0,1-4.51,8q-2.65-4.47-5.62-8.74c12.87,18.57,16.95,41,15.88,63.18-1,20.84-2.32,42.32-17.29,58.66-6.55,7.14-17.11,11.52-26.13,8-11.09-4.31-15.93-17.84-17-28.73a101.62,101.62,0,0,1,.16-17.69c.39-6,1-12,1-18.15,0-2.08,0-4.17-.15-6.25l-.06-1.24q-.31-5.4-1.13-10.74a127.79,127.79,0,0,0-4-17.78,119.35,119.35,0,0,0-6.71-16.86l-.37.16A139.16,139.16,0,0,1,260.66,773l.09.38c-10.39,0-19.65-.37-27.71-4.28a31.77,31.77,0,0,1-11.63-9.64s6.74-11.75,11.21-17.84l-.32-.24q-7.5,9.87-14.06,20.43a.05.05,0,0,0,0,.05q-1.2,1.9-2.35,3.84l-.26.44q-3.42,5.76-6.56,11.71c-3.39,6.38-6.43,12.95-9.36,19.52-.19.43-.39.85-.58,1.28q-.66,1.49-1.35,3c-2.34,5.14-4.76,10.22-7.56,15.07-12.2,21.4-30.55,30-54.34,33.07-12.5,1.6-25.58-2.77-29.91-15.56-5.28-15.6,4.55-34.28,12.52-47.23,13.64-22.14,31.52-41.45,45-63.65.7-1,1.44-2,2-2.78s1.24-1.71,1.34-1.9h0A60.7,60.7,0,0,0,173,703.94l-.38-.12-1,2.52c-.16.42-.31.84-.49,1.25l-.56,1.22c-.39.81-.73,1.63-1.13,2.43l-1.27,2.36c-.58,1-1.18,2-1.81,3A35.52,35.52,0,0,1,139.9,695l0-.07a58.53,58.53,0,0,1,14.3.17l.21,0a56,56,0,0,0-14.73-.79c-.87.06-1.74.14-2.6.25h0a75.61,75.61,0,0,0-17.16,4.12c-12.11,4.37-23.34,11.15-33.88,18.45a131,131,0,0,1-15.36,9.65,50.32,50.32,0,0,1-8.28,3.34,36.87,36.87,0,0,1-8.7,1.43c-5.84.23-11.83-1.16-16.3-4.73s-7.26-9-8.49-14.63c-3.43-15.66,1.21-36.22,9.74-49.54,6.94-10.83,17.56-18.86,28.87-25,11.48-6.23,24.27-10.77,37.22-11.56a6,6,0,0,1-1,0c-.17-.28-.34-.58-.49-.89-42.69.06-84,37-78.32,81.9.94,7.34,3.28,14.84,8.57,20,8,7.74,20.78,8.29,31.26,4.64S84.09,721,93.22,714.66c12.84-8.89,27.43-16.61,42.6-19.19a.14.14,0,0,0,0,.06,39.66,39.66,0,0,0,28,24.69c-1.8,2.51-4.15,5.73-5.66,7.82-19.87,21.8-39.23,44.49-51.05,71.41-3.77,8.59-6.77,17.8-6.26,27.16S106,845.55,114.26,850c5,2.69,10.95,3.27,16.67,3.15,24.9-.52,48.86-13.45,61-35.45,2.64-4.78,4.9-9.72,7.07-14.68a64.94,64.94,0,0,0,13.48,11.31A69.92,69.92,0,0,0,229,822a65.74,65.74,0,0,0,15.05,2.88c-5.16,7.63-8.87,16.18-12.2,24.72-1,2.48-1.87,5-2.78,7.46a31.45,31.45,0,0,0-1.26,3.91,8.61,8.61,0,0,0,.09,4.5,14.05,14.05,0,0,0,2,3.82c.79,1.09,1.58,2.18,2.43,3.23a75.09,75.09,0,0,0,5.38,6,95.19,95.19,0,0,0,12.3,10.4c2.18,1.57,4.41,3,6.67,4.49s4.59,2.74,6.89,4.11a174.89,174.89,0,0,0,28.25,12.84,38.2,38.2,0,0,0-8.08,1.2,26.75,26.75,0,0,0-10.05,5.1,18.7,18.7,0,0,0-6.21,9.43,22.6,22.6,0,0,0-.74,5.66c0,1,0,1.9.11,2.84a12.17,12.17,0,0,0,.56,2.86c1.21,3.64,3.11,6.88,4.44,10.29.62,1.69,1.25,3.49.73,5a6.28,6.28,0,0,1-.4.88,14.4,14.4,0,0,0-4.83,5.41,15.16,15.16,0,0,0-.72,1.59c-.23.24-.44.49-.66.74a25.8,25.8,0,0,0-3.42,4.63,35.74,35.74,0,0,0-3,11,44.89,44.89,0,0,0,8.77,32.23,64.75,64.75,0,0,0,16.53,15.44,98.64,98.64,0,0,0,9.82,5.65c3.38,1.67,6.85,3.15,10.36,4.5a196.41,196.41,0,0,0,43.76,10.27,407.29,407.29,0,0,0,44.8,2.74c14.93.2,29.87.21,44.83-.39a417.31,417.31,0,0,0,44.74-4,276.24,276.24,0,0,0,43.92-10q10.75-3.48,21.14-8c1.72-.78,3.46-1.5,5.15-2.33l5.1-2.46,5-2.64c1.68-.87,3.29-1.86,4.94-2.78a179.84,179.84,0,0,0,18.82-12.65,149.3,149.3,0,0,0,16.88-15.21,180.19,180.19,0,0,0,26.64-36.58A290.14,290.14,0,0,0,649,909.69c1.28-3.52,2.45-7.08,3.66-10.63s2.3-7.12,3.38-10.7q3.29-10.74,6.15-21.56c1.94-7.22,3.84-14.42,5.67-21.68s3.46-14.57,4.64-22A125,125,0,0,0,674.18,800.7ZM430.86,534.63c-13.72,4-27.53,7.88-41.62,9.6a107,107,0,0,1-21.15.62,93.27,93.27,0,0,1-20.67-4A108.73,108.73,0,0,1,328,532.55a127.46,127.46,0,0,1-17.65-11.63c-3.42-2.66-6.71-5.48-9.9-8.42,6.94-1.94,14.19-2.31,21.44-2.84,4.06-.3,8.12-.59,12.16-.72a117.67,117.67,0,0,1,12,.06,63.59,63.59,0,0,1,11.67,1.78,90.55,90.55,0,0,1,11,3.44,55.5,55.5,0,0,1,10.33,5.19,51.14,51.14,0,0,1,9.12,7.68l.52-.31a28.81,28.81,0,0,0-7-10.64,39.62,39.62,0,0,0-10.59-7.41l-.61-.28c2-.4,3.91-.75,5.87-1a94.63,94.63,0,0,1,11-1q5.49-.17,11,.16a63.78,63.78,0,0,1,10.89,1.55,69.24,69.24,0,0,1,20.39,8.44,71.65,71.65,0,0,1,16.33,13.57C441,531.62,435.91,533.14,430.86,534.63ZM483.79,522c-3.79.4-7.56,1-11.3,1.67-8.77,1.65-17.39,3.92-25.94,6.38a69.9,69.9,0,0,0-15.73-15.11,73,73,0,0,0-13.89-7.5l-1-.4q-2.83-1.11-5.76-1.95a76.19,76.19,0,0,0-11.32-2.4,52.24,52.24,0,0,0-11.59-.21,58.77,58.77,0,0,0-11.34,2.21,50.54,50.54,0,0,0-7.4,2.86,41.56,41.56,0,0,0-9.57-2.57,84.63,84.63,0,0,0-12.67-.75,119.58,119.58,0,0,0-12.46.76c-4.11.46-8.17,1.09-12.21,1.73s-8.09,1.31-12.13,2.19a57.3,57.3,0,0,0-9.69,2.94q-2.64-2.44-5.17-5c-4.95-5.06-9.64-10.39-14.1-15.91-8.93-11-16.95-22.83-24.83-34.77-4-6-8-11.84-11.22-18a52.56,52.56,0,0,1-4.54-11.8,129.76,129.76,0,0,0,58,26.26c11.87,2.11,23.82,2.56,35.56,2.93q12.58.39,25.16.74l4.65.11,5.43.13c23.52.51,47.13.52,70.75-.95A405.51,405.51,0,0,0,506.63,446C494.22,469.1,485.85,496.77,483.79,522Zm135,206.65a11.35,11.35,0,0,1,5.42,2.11,15.28,15.28,0,0,1,3.73,4.44A22.58,22.58,0,0,1,631,747.45a15.92,15.92,0,0,1-1.47,6.19,13.59,13.59,0,0,1-6.82,6.75c-.71-2.76-1.55-5.47-2.33-8.16-2.36-7.94-4.53-16-7.83-23.82A39.75,39.75,0,0,1,618.78,728.62ZM324.3,769.86a.76.76,0,0,0,.08-.11,1.11,1.11,0,0,1,.07.26ZM318,753.92c2.65-1.82,3.93-6.3,5.32-9.14a57.26,57.26,0,0,0,3.4-9.12,52.87,52.87,0,0,0,1.74-9.59,69,69,0,0,0,0-9.75,51.49,51.49,0,0,0-4.85-18.74c-.26-.53-.52-1.05-.8-1.57,1.95-2.13,3.25-6.63,3.4-9.44a25.64,25.64,0,0,0,0-2.63,2.26,2.26,0,0,1,0-.26C335.4,695.4,341,711,340.57,725.87a76,76,0,0,1-15.22,42.6A149.44,149.44,0,0,0,318,753.92Zm-99.18,8.67A35.68,35.68,0,0,0,231.3,772.7c8.8,4.26,18.54,4.68,29.41,4.68,0,0,2.5,8.46,3,13.26.3,3.29.52,6.58.61,9.87a89.71,89.71,0,0,1-14.37-3.62A66.25,66.25,0,0,1,235.62,790a52.92,52.92,0,0,1-11.89-10.51,43.94,43.94,0,0,1-7.43-12.66C217.11,765.41,217.93,764,218.77,762.59ZM200.63,799.2l.51-1.18c2.81-6.64,5.71-13.21,9-19.62q2.82-5.6,5.9-11a45,45,0,0,0,7,12.72,54,54,0,0,0,11.81,11.12,67.24,67.24,0,0,0,14.42,7.51A82.28,82.28,0,0,0,260,802a111.65,111.65,0,0,1-27.54,3,103.31,103.31,0,0,1-16.19-1.54,94,94,0,0,1-15.62-4.21Zm29.5,19.55a74.53,74.53,0,0,1-15.44-7.85,79.21,79.21,0,0,1-7.33-5.55c2.77.66,5.57,1.18,8.38,1.6a109.39,109.39,0,0,0,16.75,1.13,114,114,0,0,0,31.85-4.79c0,1.73,0,3.45-.09,5.17-.14,4.69-.62,9.39-1.08,14.13-1,.11-1.94.22-2.9.35l-4.41.23-4.4-.08-4.38-.33-.87-.11c-.18,0-.35,0-.52-.06A72,72,0,0,1,230.13,818.75Zm35.19,75.78a121.8,121.8,0,0,1-25.59-18,73.61,73.61,0,0,1-5.36-5.67c-.85-1-1.64-2-2.43-3a12,12,0,0,1-1.81-3.11c-.76-2.07.08-4.51.93-7l2.53-7.51c3-8.74,6.38-17.39,11.19-25.29.72.05,1.43.08,2.15.1l4.53,0,4.5-.39,4.45-.71c.9-.21,1.79-.44,2.69-.66l-.3,3.13a105.45,105.45,0,0,0-.3,18.4c.94,10.24,4.72,20.66,12.9,27.33a25,25,0,0,0,18.08,5.78c9.19-1,16.87-7.71,21.84-15.49,12.38-19.4,17.77-41.92,12.89-64.68a4.4,4.4,0,0,1,.09-3.16c.58-1,1.81-1.34,2.91-1.66,10.38-3.07,18.52-11.67,23-21.53s5.61-20.92,5.51-31.75c-1.17,9.63-2.4,19.43-6.41,28.25a48.35,48.35,0,0,1-25.16,24.35l-1.92-20.06a6.15,6.15,0,0,1,.19-3,6.78,6.78,0,0,1,1.92-2.29c8.19-7.42,13.17-18,14.83-28.94s.15-22.18-3.18-32.72c-2.59-8.19-7.15-17.41-13.84-22.84-.12-1.45-.33-2.9-.58-4.33a115.19,115.19,0,0,0-3.93-16.56,180.89,180.89,0,0,0-13.78-31.12c-2.71-5-5.55-9.89-8.45-14.76l0-.06c1.64.41,3.27.85,4.88,1.36,1.21.36,2.41.76,3.61,1.17s2.38.82,3.55,1.27,2.31,1,3.44,1.52,2.25,1,3.35,1.36a23,23,0,0,1,6.42,3.17l.35-.2a7.1,7.1,0,0,0-1.77-3.88,12,12,0,0,0-3.28-2.7c-2.42-1.45-5.06-1.73-7.59-2.34a66.61,66.61,0,0,0-7.68-1.32c-2-.2-3.92-.36-5.89-.42-1.39-2.27-2.78-4.54-4.23-6.79l.93-.49c1.24-.59,2.45-1.18,3.65-1.79s2.43-1.14,3.65-1.69l3.68-1.59c1.25-.49,2.47-1,3.7-1.53s2.47-1,3.7-1.54,2.49-1,3.75-1.49l3.83-1.31a151.45,151.45,0,0,1,15.76-4c4.89-1.07,11.09-1.3,16.24-2.06l.27,1.65a16.56,16.56,0,0,0-11,5.69,16.4,16.4,0,0,0-4.26,12.61,20.44,20.44,0,0,0,2.88,8c4.19,7,11.79,12.37,21.42,15.06,8.73,2.45,18.24,2.54,25.87,2.62h1.65a24.39,24.39,0,0,0,9.7-1.52c7.34-3.12,11.32-12.62,8.69-20.75-2.29-7.07-9.9-12.73-18-14.44l1.24-11.74a7.19,7.19,0,0,1,3-.38c2.56.19,5.13.41,7.71.49s5.15,0,7.73-.07,5.15-.33,7.71-.58l3.83-.52c1.73.77,3.42,1.63,5.05,2.56.65.39,1.3.79,1.94,1.21l1.85,1.33c.6.46,1.21.9,1.85,1.31s1.24.85,1.88,1.25,1.27.83,1.93,1.22,1.28.83,2,1.22,1.32.82,2,1.22a22.68,22.68,0,0,0,2.13,1.19l.29-.27a20,20,0,0,0-1.13-2.21c-.45-.68-.91-1.37-1.41-2s-1-1.25-1.6-1.86-1.17-1.14-1.78-1.69-1.27-1-1.94-1.49-1.4-.85-2.11-1.24l-2.21-1.06c-.75-.31-1.5-.64-2.23-1-.46-.2-.93-.4-1.4-.58,2.11-.44,4.2-.94,6.28-1.46l7.4-2.2c2.44-.83,4.89-1.63,7.33-2.42l7.24-2.64,7.12-2.92c2.34-1.06,4.65-2.17,7-3.25s4.55-2.37,6.82-3.55c1.4-.79,2.79-1.59,4.17-2.42,4.89,1.39,9.77,2.82,14.5,4.59a63,63,0,0,1,15.31,8,50.68,50.68,0,0,1,20,44.71,65.66,65.66,0,0,1-1.21,8.37,72.54,72.54,0,0,1-2.26,8.16,68.12,68.12,0,0,1-7.49,15.28,47.54,47.54,0,0,1-9.57,11.08,21.42,21.42,0,0,1-3-3.61c-4-6.06-5.84-13.71-10.2-20.24a54.93,54.93,0,0,0-7.64-8.64c-2.74-2.64-5.59-5.18-8.58-7.55-6-4.7-12.71-8.69-20.14-10.51l-.1.39c7.28,2.06,13.76,6.21,19.48,11,2.87,2.44,5.59,5,8.22,7.75a54.08,54.08,0,0,1,7.09,8.61,61.76,61.76,0,0,1,4.77,10.08,63.28,63.28,0,0,0,4.92,10.47,22.18,22.18,0,0,0,8.71,8.17A32,32,0,0,0,524.54,674a86.26,86.26,0,0,0,11.57.19,91.12,91.12,0,0,1,11.12.19,33.71,33.71,0,0,1,5.27.89,20.87,20.87,0,0,1,4.79,1.82,9.45,9.45,0,0,1,3.42,3.13,14.72,14.72,0,0,1,1.95,4.56,30.94,30.94,0,0,1,.6,10.58,44.91,44.91,0,0,1-2.6,10.62c-2.55,6.82-6.28,13.3-10.14,19.68-1.29-.55-2.6-1.06-3.91-1.54-4.27-1.58-9.42-3.48-13.89-4.73,4.08-9.71,8.47-19.42,15-27.7l-.32-.26c-6.73,8.28-11.27,18-15.49,27.72v0l-.2.47-12.41,28.67-25.25,58.32c-8.49,19.36-17.54,38.59-29.77,55.74a131.14,131.14,0,0,1-21,23.29l-3,2.53c-1,.83-2.09,1.57-3.13,2.36s-2.09,1.57-3.15,2.32-2.16,1.47-3.27,2.16A114.31,114.31,0,0,1,417,902.4a147.09,147.09,0,0,1-29.82,9.72A171,171,0,0,1,356,915.91a177.59,177.59,0,0,1-61.84-9A171.54,171.54,0,0,1,265.32,894.53ZM558.81,732a48.66,48.66,0,0,1,5.49,4.52,42.37,42.37,0,0,1,4.65,5.35,60.25,60.25,0,0,1,6.92,12.41,108.25,108.25,0,0,1,4.59,13.57c.17.57.34,1.15.49,1.72l.41,1.75.81,3.5c.3,1.16.47,2.34.69,3.52l.62,3.53a127.29,127.29,0,0,1,1.19,28.59,131.7,131.7,0,0,1-4.87,28.16,128.49,128.49,0,0,1-101.28,90.94c-19,3.26-38.46,2.91-57.82,3.27s-38.77.25-58.07-1.41a269.78,269.78,0,0,1-28.75-3.9,54.13,54.13,0,0,1-13.67-4.55,25.25,25.25,0,0,1-8.61-7c4.13.92,8.3,1.69,12.48,2.31a179.87,179.87,0,0,0,32.05,1.59,174.79,174.79,0,0,0,31.8-4.26,150.58,150.58,0,0,0,30.37-10.3,114.93,114.93,0,0,0,14.09-7.77c1.14-.71,2.24-1.48,3.35-2.24s2.14-1.61,3.22-2.42,2.16-1.6,3.19-2.45l3-2.64a133.61,133.61,0,0,0,21.24-24c12.25-17.54,21.16-37,29.48-56.46l24.52-58.64,11.9-28.46c4.48,1.46,9.6,3.09,13.85,4.88A65.65,65.65,0,0,1,558.81,732ZM267.39,962a14.09,14.09,0,0,1,1.51-3.84,13.83,13.83,0,0,1,2.66-3.34,11.79,11.79,0,0,1,2.32-1.69s0,0,0,0a0,0,0,0,0,0,0c13.91,5.85,21.91,8.47,32.24,9.25h0l.61,0a.76.76,0,0,1,0,.15c.22,3-.07,6.51-1.87,8.54a19.94,19.94,0,0,1-7.28,4.8c-1.38.6-2.81,1.12-4.23,1.59a35.1,35.1,0,0,1-4.33,1.17,23.36,23.36,0,0,1-8.85.32,17.75,17.75,0,0,1-8-3.56,13.54,13.54,0,0,1-4.83-7.22A12.84,12.84,0,0,1,267.39,962ZM670.27,822.75c-1.38,7.28-3.19,14.48-5.19,21.64s-4.1,14.32-6.22,21.45c-4.31,14.26-8.62,28.5-13.89,42.37a284.78,284.78,0,0,1-18.52,40.25,175.3,175.3,0,0,1-26,35.44,151,151,0,0,1-16.26,14.79,174.58,174.58,0,0,1-18.2,12.39c-1.6.92-3.16,1.89-4.78,2.76l-4.86,2.63-5,2.45c-1.64.83-3.34,1.55-5,2.33q-10.1,4.51-20.62,8a270.07,270.07,0,0,1-43.13,10.25,412.77,412.77,0,0,1-44.3,4.3c-14.85.72-29.75.84-44.63.76a402.49,402.49,0,0,1-44.49-2.35,193.88,193.88,0,0,1-43.23-9.75c-3.46-1.28-6.87-2.7-10.2-4.29a95.44,95.44,0,0,1-9.62-5.4A62.47,62.47,0,0,1,270,1008.05a43.13,43.13,0,0,1-8.77-30.86,34.42,34.42,0,0,1,2.75-10.5,16.8,16.8,0,0,1,1.88-2.81,13.58,13.58,0,0,0,.07,4.67,15.25,15.25,0,0,0,5,8.38,19.8,19.8,0,0,0,7.87,4.19h0c12.84,6.32,35.51,10.2,49.41,8.8a74.93,74.93,0,0,1-37-8.63,33,33,0,0,0,7.65-2.65,19.5,19.5,0,0,0,7.7-6.25,12.07,12.07,0,0,0,1.92-4.63,12.43,12.43,0,0,0-.6-5.27c2.77.16,5.74.19,9,.13-16,0-35.46-10-46.19-20.56l.1.37a50.45,50.45,0,0,1-2.29-5.32,11.42,11.42,0,0,1-.54-2.61c-.09-.91-.14-1.82-.14-2.74a21.29,21.29,0,0,1,.65-5.4,17.71,17.71,0,0,1,5.8-9,25.83,25.83,0,0,1,9.69-5,40.23,40.23,0,0,1,9.54-1.36,176.93,176.93,0,0,0,17.38,4.86,25.6,25.6,0,0,0,9,7.66,55,55,0,0,0,13.78,4.8,269.4,269.4,0,0,0,28.81,4.31c19.34,1.93,38.79,2.21,58.19,2.22,9.7,0,19.39,0,29.11-.25A217.64,217.64,0,0,0,479,932.09,133.19,133.19,0,0,0,572.47,867a128.6,128.6,0,0,0,11.32-27.22,135.28,135.28,0,0,0,4.87-29.07c.18-3.51.22-7,.11-10.55.21,1.14.41,2.28.61,3.43,1.58,8.78,2.71,17.65,3.56,26.55l.39,0c-.2-9-.92-17.91-2-26.82s-2.65-17.77-4.56-26.56-3.94-17.6-7.1-26l-2.45-6.3c-.9-2.07-1.77-4.14-2.71-6.19s-1.95-4.06-3-6.07-2.14-4-3.29-5.9l-.37.16c.6,2.18,1.29,4.31,2,6.44s1.33,4.27,2,6.39l1.56,5q-1.26-1.92-2.7-3.74a44.27,44.27,0,0,0-5.06-5.45,48.44,48.44,0,0,0-5.89-4.52,62.15,62.15,0,0,0-8.88-4.67c4.71-5.76,9.16-11.85,12.31-18.79.56-1.2,1.06-2.44,1.51-3.69A27.09,27.09,0,0,1,576,701.86a32,32,0,0,1,13.07,4c7.94,4.52,14.38,11.77,18.87,20.13s7.4,17.68,10.54,26.88c.94,2.7,1.92,5.36,2.77,8.06.07.21.13.42.2.63.51,1.69,1,3.39,1.33,5.12,1,4.66,1.12,9.64-.81,14.09l.36.17a19.6,19.6,0,0,0,2-7.09,30.9,30.9,0,0,0-.32-7.38,51.75,51.75,0,0,0-1.07-5.24,12.56,12.56,0,0,0,3.33-1.48,15.52,15.52,0,0,0,5-5.12,18.1,18.1,0,0,0,2.36-6.9,24.67,24.67,0,0,0-.16-7.28,29,29,0,0,0-2-7.07c-.06-.13-.12-.26-.19-.39,5.87-.05,11.25,2.49,15.6,6a31.55,31.55,0,0,1,3.59,3.34l.83.9.79.94c.53.62,1,1.29,1.52,2a60.89,60.89,0,0,1,5.26,8.78A122.49,122.49,0,0,1,667,774.06c2.07,6.57,3,13.61,1.59,20.48l.39.1a33.66,33.66,0,0,0,1.35-10.38,68,68,0,0,1,2.42,16.45A123.87,123.87,0,0,1,670.27,822.75Z"/><path class="cls-13" d="M670.32,784.26A33.66,33.66,0,0,1,669,794.64l-.39-.1c1.42-6.87.48-13.91-1.59-20.48a122.49,122.49,0,0,0-8.14-19.14,60.89,60.89,0,0,0-5.26-8.78c-.49-.68-1-1.35-1.52-2l-.79-.94-.83-.9a31.55,31.55,0,0,0-3.59-3.34c-4.35-3.54-9.73-6.08-15.6-6,.07.13.13.26.19.39a29,29,0,0,1,2,7.07,24.67,24.67,0,0,1,.16,7.28,18.1,18.1,0,0,1-2.36,6.9,15.52,15.52,0,0,1-5,5.12,12.56,12.56,0,0,1-3.33,1.48,51.75,51.75,0,0,1,1.07,5.24,30.9,30.9,0,0,1,.32,7.38,19.6,19.6,0,0,1-2,7.09l-.36-.17c1.93-4.45,1.77-9.43.81-14.09-.36-1.73-.82-3.43-1.33-5.12-.07-.21-.13-.42-.2-.63-.85-2.7-1.83-5.36-2.77-8.06-3.14-9.2-6-18.5-10.54-26.88S597,710.35,589.05,705.83a32,32,0,0,0-13.07-4,27.09,27.09,0,0,0-11.21,1.45c-.45,1.25-.95,2.49-1.51,3.69-3.15,6.94-7.6,13-12.31,18.79a62.15,62.15,0,0,1,8.88,4.67,48.44,48.44,0,0,1,5.89,4.52,44.27,44.27,0,0,1,5.06,5.45q1.44,1.82,2.7,3.74l-1.56-5c-.7-2.12-1.37-4.25-2-6.39s-1.37-4.26-2-6.44l.37-.16c1.15,1.94,2.22,3.92,3.29,5.9s2,4,3,6.07,1.81,4.12,2.71,6.19l2.45,6.3c3.16,8.44,5.16,17.26,7.1,26s3.43,17.65,4.56,26.56,1.77,17.86,2,26.82l-.39,0c-.85-8.9-2-17.77-3.56-26.55-.2-1.15-.4-2.29-.61-3.43.11,3.51.07,7-.11,10.55a135.28,135.28,0,0,1-4.87,29.07A128.6,128.6,0,0,1,572.47,867,133.19,133.19,0,0,1,479,932.09a217.64,217.64,0,0,1-29.13,2.46c-9.72.25-19.41.21-29.11.25-19.4,0-38.85-.29-58.19-2.22a269.4,269.4,0,0,1-28.81-4.31,55,55,0,0,1-13.78-4.8,25.6,25.6,0,0,1-9-7.66A176.93,176.93,0,0,1,293.55,911a40.23,40.23,0,0,0-9.54,1.36,25.83,25.83,0,0,0-9.69,5,17.71,17.71,0,0,0-5.8,9,21.29,21.29,0,0,0-.65,5.4c0,.92.05,1.83.14,2.74a11.42,11.42,0,0,0,.54,2.61,50.45,50.45,0,0,0,2.29,5.32l-.1-.37c10.73,10.56,30.21,20.53,46.19,20.56-3.29.06-6.26,0-9-.13a12.43,12.43,0,0,1,.6,5.27,12.07,12.07,0,0,1-1.92,4.63,19.5,19.5,0,0,1-7.7,6.25,33,33,0,0,1-7.65,2.65,74.93,74.93,0,0,0,37,8.63c-13.9,1.4-36.57-2.48-49.41-8.8h0a19.8,19.8,0,0,1-7.87-4.19,15.25,15.25,0,0,1-5-8.38,13.58,13.58,0,0,1-.07-4.67,16.8,16.8,0,0,0-1.88,2.81,34.42,34.42,0,0,0-2.75,10.5,43.13,43.13,0,0,0,8.77,30.86,62.47,62.47,0,0,0,16.16,14.75,95.44,95.44,0,0,0,9.62,5.4c3.33,1.59,6.74,3,10.2,4.29a193.88,193.88,0,0,0,43.23,9.75,402.49,402.49,0,0,0,44.49,2.35c14.88.08,29.78,0,44.63-.76a412.77,412.77,0,0,0,44.3-4.3,270.07,270.07,0,0,0,43.13-10.25q10.51-3.52,20.62-8c1.67-.78,3.37-1.5,5-2.33l5-2.45,4.86-2.63c1.62-.87,3.18-1.84,4.78-2.76a174.58,174.58,0,0,0,18.2-12.39,151,151,0,0,0,16.26-14.79,175.3,175.3,0,0,0,26-35.44A284.78,284.78,0,0,0,645,908.21c5.27-13.87,9.58-28.11,13.89-42.37,2.12-7.13,4.21-14.29,6.22-21.45s3.81-14.36,5.19-21.64a123.87,123.87,0,0,0,2.47-22A68,68,0,0,0,670.32,784.26ZM643,777.74c-.93-1.88-1.78-3.79-2.77-5.6a48.43,48.43,0,0,0-3.11-5.21,17,17,0,0,0-1.91-2.22,23.25,23.25,0,0,1-1.87-2.12l-1.8-2.27c-.62-.79-1.29-1.58-2-2.53l.17-.36a9.64,9.64,0,0,1,6.41,2.31,9.36,9.36,0,0,1,2.23,2.59c.56,1,1.06,2,1.52,3s.88,2,1.26,3,.66,2,.94,3.07c.51,2.08,1,4.13,1.29,6.21Z"/><path class="cls-14" d="M446.05,530.16c-5.08,1.46-10.14,3-15.19,4.47-13.72,4-27.53,7.88-41.62,9.6a107,107,0,0,1-21.15.62,93.27,93.27,0,0,1-20.67-4A108.73,108.73,0,0,1,328,532.55a127.46,127.46,0,0,1-17.65-11.63c-3.42-2.66-6.71-5.48-9.9-8.42,6.94-1.94,14.19-2.31,21.44-2.84,4.06-.3,8.12-.59,12.16-.72a117.67,117.67,0,0,1,12,.06,63.59,63.59,0,0,1,11.67,1.78,90.55,90.55,0,0,1,11,3.44,55.5,55.5,0,0,1,10.33,5.19,51.14,51.14,0,0,1,9.12,7.68l.52-.31a28.81,28.81,0,0,0-7-10.64,39.62,39.62,0,0,0-10.59-7.41l-.61-.28c2-.4,3.91-.75,5.87-1a94.63,94.63,0,0,1,11-1q5.49-.17,11,.16a63.78,63.78,0,0,1,10.89,1.55,69.24,69.24,0,0,1,20.39,8.44A71.65,71.65,0,0,1,446.05,530.16Z"/><path d="M416.93,507.41l-1-.4q-2.83-1.11-5.76-1.95a76.19,76.19,0,0,0-11.32-2.4,52.24,52.24,0,0,0-11.59-.21,58.77,58.77,0,0,0-11.34,2.21,50.54,50.54,0,0,0-7.4,2.86,41.56,41.56,0,0,0-9.57-2.57,84.63,84.63,0,0,0-12.67-.75,119.58,119.58,0,0,0-12.46.76c-4.11.46-8.17,1.09-12.21,1.73s-8.09,1.31-12.13,2.19a57.3,57.3,0,0,0-9.69,2.94q-2.64-2.44-5.17-5c-4.95-5.06-9.64-10.39-14.1-15.91-8.93-11-16.95-22.83-24.83-34.77-4-6-8-11.84-11.22-18a52.56,52.56,0,0,1-4.54-11.8,129.76,129.76,0,0,0,58,26.26c11.87,2.11,23.82,2.56,35.56,2.93q12.58.39,25.16.74l4.65.11a102.73,102.73,0,0,1,26.42,10.34C402.58,474.28,416.44,488.89,416.93,507.41Z"/><path class="cls-15" d="M506.63,446c-12.41,23.09-20.78,50.76-22.84,76-3.79.4-7.56,1-11.3,1.67-8.77,1.65-17.39,3.92-25.94,6.38a69.9,69.9,0,0,0-15.73-15.11,73,73,0,0,0-13.89-7.5c-.49-18.52-14.35-33.13-27.29-40.68a102.73,102.73,0,0,0-26.42-10.34l5.43.13c23.52.51,47.13.52,70.75-.95A405.51,405.51,0,0,0,506.63,446Z"/><path class="cls-12" d="M304.91,971.12a19.94,19.94,0,0,1-7.28,4.8c-1.38.6-2.81,1.12-4.23,1.59a35.1,35.1,0,0,1-4.33,1.17,23.36,23.36,0,0,1-8.85.32,17.75,17.75,0,0,1-8-3.56,13.54,13.54,0,0,1-4.83-7.22,12.84,12.84,0,0,1,0-6.22,14.09,14.09,0,0,1,1.51-3.84,13.83,13.83,0,0,1,2.66-3.34,11.79,11.79,0,0,1,2.32-1.69h0c13.91,5.85,21.91,8.47,32.24,9.25h0l.62.19C307,965.59,306.71,969.09,304.91,971.12Z"/><path class="cls-16" d="M311.19,743.25q3,4.28,5.62,8.74a22.41,22.41,0,0,0,4.51-8c.49-1.47.93-3,1.33-4.49s.79-3,1.11-4.56c1.31-6.08,2.45-12.24,2.29-18.49a49.34,49.34,0,0,0-3.82-18.23,42.57,42.57,0,0,0-10.72-15.38l.19-.23a41.48,41.48,0,0,1,10.37,12.1c1.74-2.16,3.48-5.54,3.53-8.15a35.57,35.57,0,0,0-.94-8.32A114.23,114.23,0,0,0,320.2,662a179.32,179.32,0,0,0-14.45-30.41c-2.83-4.86-5.81-9.64-8.89-14.37l-4.56-7.11c-1.52-2.36-3.05-4.7-4.66-7A54.59,54.59,0,0,0,276.47,591c-.5-.38-1-.76-1.54-1.11l-.78-.53c-.54-.35-1.08-.68-1.62-1a31.64,31.64,0,0,0-4.66-2.23c-.23-.08-.45-.17-.68-.24a25.41,25.41,0,0,0-3.44-1l0-.64a83.91,83.91,0,0,0-3.3-18.86q-.46-1.66-1-3.3c-.52-1.64-1.07-3.26-1.66-4.88-8.62-23.69-24.65-45-46.52-57.43-2.13-1.21-4.38-2.39-5.86-4.35a16.56,16.56,0,0,1-2.4-5.6c-3.15-10.75-6.8-21.84-14.55-29.94-4.21-4.4-9.44-7.69-14.7-10.78-11.38-6.69-23.3-12.73-36.09-16A72.65,72.65,0,0,0,109,431.28c-.4.06-11.88,2.72-17.46,4.47a33.34,33.34,0,0,0-15.74,9.89,23.12,23.12,0,0,0-4.72,8.48,23.38,23.38,0,0,0-.66,9.72A30.89,30.89,0,0,0,73.19,473a43.53,43.53,0,0,0,5,7.91A118,118,0,0,0,90.79,494a125.47,125.47,0,0,0,14.08,11.4,76.36,76.36,0,0,0,16,8.58,53.5,53.5,0,0,0,16.7,3.37,22.08,22.08,0,0,0-2.73,18.47H135c14.37,0,29.47,8.7,39.72,14.22l-4.53-2.33c-9.83-5.3-21.89-8-35.9-7.9-10.69,0-21.44,1.61-31.94,3.38,3,.76,6,1.56,9,2.38l35.87,10.46.58.15,2.88.86-3.46-1-36.17-9.3c-4.11-1-8.23-2-12.36-2.93l-2.11-.45A207.68,207.68,0,0,0,74,539.68c-12.48-1.28-25.19-1-37.35,1.79a73.58,73.58,0,0,0-17.44,6.32C13.79,550.67,9,554.7,6.23,560A27.11,27.11,0,0,0,4,577.37a32,32,0,0,0,2.85,8.47A35,35,0,0,0,12,593.2a46.49,46.49,0,0,0,14.52,10.73A68.11,68.11,0,0,0,44,609.58a146.24,146.24,0,0,0,18.57,2.25c6.28.45,12.57.68,18.87.87s12.61.15,18.92,0l1.83,0,3.21-.08c4.63-.15,9.26-.4,13.9-.66l0,.4c-4.64.71-9.3,1.27-14,1.73v.49c.22,0-.86,7.44.06,10.68h0a72.57,72.57,0,0,1,13.32,1.62,60.7,60.7,0,0,0-13-.76,0,0,0,0,1,0,0l-.7,0h-.35c-13,.79-25.74,5.33-37.22,11.56-11.31,6.14-21.93,14.17-28.87,25C30.07,676,25.43,696.54,28.86,712.2c1.23,5.66,4,11.13,8.49,14.63s10.46,5,16.3,4.73a36.87,36.87,0,0,0,8.7-1.43,50.32,50.32,0,0,0,8.28-3.34A131,131,0,0,0,86,717.14c10.54-7.3,21.77-14.08,33.88-18.45A75.61,75.61,0,0,1,137,694.57h0c.86-.11,1.73-.19,2.6-.25a56,56,0,0,1,14.73.79l-.21,0a58.53,58.53,0,0,0-14.3-.17l0,.07a35.52,35.52,0,0,0,26.48,21.66c.63-1,1.23-2,1.81-3l1.27-2.36c.4-.8.74-1.62,1.13-2.43l.56-1.22c.18-.41.33-.83.49-1.25l1-2.52.38.12a60.7,60.7,0,0,1-6.11,14.69h0c-.1.19-.63.93-1.34,1.9s-1.34,1.82-2,2.78c-13.5,22.2-31.38,41.51-45,63.65-8,12.95-17.8,31.63-12.52,47.23,4.33,12.79,17.41,17.16,29.91,15.56,23.79-3,42.14-11.67,54.34-33.07,2.8-4.85,5.22-9.93,7.56-15.07q.69-1.49,1.35-3c.19-.43.39-.85.58-1.28,2.93-6.57,6-13.14,9.36-19.52q3.14-5.94,6.56-11.71l.26-.44q1.15-1.94,2.35-3.84v0l0,0q6.54-10.54,14.06-20.43l.32.24c-4.47,6.09-11.21,17.84-11.21,17.84A31.77,31.77,0,0,0,233,769.1c8.06,3.91,17.32,4.29,27.71,4.28l-.09-.38a139.16,139.16,0,0,0-5.32-17.18l.37-.16a119.35,119.35,0,0,1,6.71,16.86,127.79,127.79,0,0,1,4,17.78q.81,5.34,1.13,10.74l.06,1.24c.11,2.08.15,4.17.15,6.25,0,6.13-.6,12.18-1,18.15a101.62,101.62,0,0,0-.16,17.69c1.09,10.89,5.93,24.42,17,28.73,9,3.51,19.58-.87,26.13-8,15-16.34,16.28-37.82,17.29-58.66C328.14,784.29,324.06,761.82,311.19,743.25Zm-95-146c-3-2.32-6.06-4.55-9.17-6.73s-6.18-4.37-9.27-6.52-6.26-4.16-9.52-6A99.06,99.06,0,0,0,178,573l.09-.29c7.58,1.39,14.72,4.81,21.25,8.85s12.4,9,18.3,13.9a111.58,111.58,0,0,1,16.22,16.3,55,55,0,0,1,10.23,20.45l-.29.08a54,54,0,0,0-11.1-19.58A109.91,109.91,0,0,0,216.15,597.28ZM298,664.47a119.78,119.78,0,0,0-16-13.82A102.6,102.6,0,0,0,264,640a78.31,78.31,0,0,0-20.22-5.79,70.14,70.14,0,0,0-21.16,0l0-.3a71,71,0,0,1,21.39-1.19,80.42,80.42,0,0,1,21,5.06,71.78,71.78,0,0,1,18.94,10.48,61.86,61.86,0,0,1,14.42,16Z"/><path d="M311.27,743.37c1.93,2.9,3.84,5.66,5.67,8.54l-.24,0a22.31,22.31,0,0,0,4.51-8.07l1.32-4.48,1.1-4.55c1.31-6.09,2.45-12.28,2.26-18.52A49.06,49.06,0,0,0,322,698.11a42.46,42.46,0,0,0-10.62-15.18l-.11-.1.09-.11.19-.23.1-.11.11.09a41.69,41.69,0,0,1,10.41,12.14H322a19,19,0,0,0,2.19-3.47,13.05,13.05,0,0,0,1.25-3.88,30.48,30.48,0,0,0-.71-8.17,116,116,0,0,0-4.24-16,172.67,172.67,0,0,0-14-29.94c-5.73-9.42-11.5-18.84-17.7-28a59.74,59.74,0,0,0-10.64-12.54,32.67,32.67,0,0,0-14.43-7.47l-.2,0v-.21a87.59,87.59,0,0,0-4.59-23.46,121.91,121.91,0,0,0-9.62-21.93c-7.86-13.9-18.57-26.32-31.8-35.32-3.24-2.38-6.81-4.06-10.21-6.37A10.92,10.92,0,0,1,205,495.7a11.4,11.4,0,0,1-1.49-2.74c-.73-1.93-1.2-3.86-1.81-5.77-2.33-7.63-5-15.26-9.53-21.83a40,40,0,0,0-8-8.68,82.43,82.43,0,0,0-9.92-6.64,187.29,187.29,0,0,0-21.29-11,97.32,97.32,0,0,0-22.84-6.87,74,74,0,0,0-11.88-.94c-2,0-4,.11-6,.3-1,.09-2,.21-3,.36s-1.92.42-2.88.64c-3.89.93-7.78,1.89-11.63,3a42.25,42.25,0,0,0-11,4.36,29.22,29.22,0,0,0-8.72,7.76A21.28,21.28,0,0,0,71,458.33a26.63,26.63,0,0,0,1.67,11.5A38.84,38.84,0,0,0,78.48,480a86.62,86.62,0,0,0,8,8.83c2.86,2.78,5.77,5.53,8.79,8.13a98,98,0,0,0,19.62,13.49,54.15,54.15,0,0,0,22.71,6.08l1.45,0-.8,1.21a21.29,21.29,0,0,0-2.62,17.78l-.78-.58.32,0H135a46.12,46.12,0,0,1,10.74,1.41A75.54,75.54,0,0,1,156,539.83a190.89,190.89,0,0,1,19.18,9.49l-.8,1.51-4.15-2.13-2-1.05-2.08-1a62.71,62.71,0,0,0-8.62-3.08,81.72,81.72,0,0,0-18.15-2.76c-12.3-.53-24.6,1.24-36.79,3.29l.07-1.79,6.1,1.6,3,.8,3,.88,12.08,3.51,24.17,7-.54,1.84c-3-.91-6-1.67-9.06-2.44l-9.1-2.34-18.21-4.66c-3-.8-6.08-1.5-9.12-2.22s-6.08-1.48-9.14-2.09c-6.12-1.3-12.26-2.39-18.45-3.15-12.35-1.51-24.94-1.67-37.12.69a79,79,0,0,0-17.67,5.51,42.41,42.41,0,0,0-7.91,4.62,27,27,0,0,0-6.25,6.47,25,25,0,0,0-3.61,17.25,31,31,0,0,0,2.52,8.69,32,32,0,0,0,5,7.59,45.14,45.14,0,0,0,14.57,11,67.12,67.12,0,0,0,17.56,5.64A146.25,146.25,0,0,0,63,610.69l18.74.84,18.74,0,4.69-.12,4.69-.22,9.37-.45,1.15-.06.12,1.14,0,.4.12,1.17-1.14.14-14,1.75,1.1-1.18v.48l-1.22-1.24a1.3,1.3,0,0,1,1,.59l.12.24,0,.07v0a1.7,1.7,0,0,1,0,.22v.42l0,.37-.05.68-.1,1.34c-.06.88-.12,1.76-.15,2.63s0,1.74,0,2.58a11.25,11.25,0,0,0,.31,2.37l-1.18-.89c1.21,0,2.3.09,3.45.17s2.27.2,3.4.33q3.39.4,6.74,1.13l-.47,2.45a58.68,58.68,0,0,0-12.7-.73l-.05-2.52a1.32,1.32,0,0,1,.43.08,1.35,1.35,0,0,1,.48.32,1.28,1.28,0,0,1,.27.43,1.18,1.18,0,0,1,.08.4l.06,1.26-1.28,0h-1a.92.92,0,0,0,.27-.06l-.32.07a85.36,85.36,0,0,0-30.3,8.22,114.68,114.68,0,0,0-13.85,7.67A80.46,80.46,0,0,0,48.27,653a56.83,56.83,0,0,0-9.67,12.25,68.39,68.39,0,0,0-6.19,14.41,75,75,0,0,0-3,15.41,66.25,66.25,0,0,0-.25,7.84,51.2,51.2,0,0,0,.85,7.74,25.27,25.27,0,0,0,6.47,13.49,19.19,19.19,0,0,0,6.15,4.15,24,24,0,0,0,7.33,1.75A34.32,34.32,0,0,0,65,727.71a72.34,72.34,0,0,0,13.81-7.44c4.4-2.91,8.74-6.09,13.28-9s9.16-5.67,14-8.15A112.33,112.33,0,0,1,121,696.73a76.26,76.26,0,0,1,15.9-3.64h.19l-.19,0c1.49-.15,3-.31,4.46-.37s3-.08,4.46,0a55.32,55.32,0,0,1,8.88,1l-.49,2.93a57.17,57.17,0,0,0-14.14-.19l1.16-2.16,0,.08.06.13a34,34,0,0,0,25.34,20.73l-1.51.68,1.78-3c.53-1,1.16-2.05,1.62-3.11s1-2.13,1.43-3.17l1.26-3.28.5-1.31,1.34.42.38.12,1.35.42-.36,1.37a62.21,62.21,0,0,1-6.25,15.06l-.1.16-.13.14h0l.25-.34c-.59.84-1.22,1.77-1.79,2.53l-1.7,2.33.06-.1c-12.82,21-29.29,39.3-42.49,59.66a165.15,165.15,0,0,0-9.1,15.69,73.88,73.88,0,0,0-6.23,16.77,43.19,43.19,0,0,0-1,8.75,30.42,30.42,0,0,0,1.34,8.55,20.62,20.62,0,0,0,11,12.44,31.52,31.52,0,0,0,17.1,2.4,101.7,101.7,0,0,0,17.65-3.66,66.62,66.62,0,0,0,16.26-7.41,56.25,56.25,0,0,0,13.27-11.88,84.72,84.72,0,0,0,9.62-15.2c2.75-5.4,5.2-11,7.73-16.53s5.17-11.11,8.07-16.52l4.51-8,2.27-4,2.42-3.93-.19.64a1.27,1.27,0,0,0,.15.56.93.93,0,0,0,.2.26,1,1,0,0,1-.21-.27,1.31,1.31,0,0,1-.15-.57l0-.61.46-.35,0,0-.3.33q6.6-10.58,14.19-20.48l.67-.87.87.66.32.24.87.65-.64.88c-2,2.79-3.93,5.74-5.79,8.71s-3.66,6-5.41,9l-.07-1.12a31.05,31.05,0,0,0,7.57,7.25,33.07,33.07,0,0,0,9.58,4.34c6.86,1.9,14.14,2,21.36,2l-.87,1.09a136.24,136.24,0,0,0-5.32-17.47l-.27-.74.72-.31.37-.16.73-.31.34.7A119.73,119.73,0,0,1,263,771.86a126.22,126.22,0,0,1,4,17.37c1.94,11.73,1.62,23.75.54,35.48a125.18,125.18,0,0,0-.52,17.62,49.33,49.33,0,0,0,4,17,31.07,31.07,0,0,0,4.58,7.39,21.22,21.22,0,0,0,6.75,5.35,18.25,18.25,0,0,0,8.37,1.88,23.94,23.94,0,0,0,8.46-1.82,30.19,30.19,0,0,0,7.45-4.53,39.86,39.86,0,0,0,5.95-6.42,57.22,57.22,0,0,0,8.31-15.45A84.42,84.42,0,0,0,325,828.56c.83-5.83,1.26-11.72,1.59-17.61a127.12,127.12,0,0,0-1.95-35.21,94.79,94.79,0,0,0-5.15-16.88c-.53-1.38-1.2-2.69-1.8-4s-1.33-2.63-2-4-1.47-2.55-2.21-3.83c-.38-.62-.76-1.18-1.11-1.79S311.66,744,311.27,743.37Zm-.17-.24c.84,1.17,1.86,2.46,2.64,3.75s1.52,2.54,2.23,3.84,1.4,2.61,2,3.95,1.28,2.67,1.81,4.05A95.4,95.4,0,0,1,325,775.66,128,128,0,0,1,327.1,811c-.31,5.9-.72,11.8-1.54,17.67a85.51,85.51,0,0,1-4.05,17.27,58.32,58.32,0,0,1-8.36,15.66,40.4,40.4,0,0,1-6,6.56,31,31,0,0,1-7.62,4.67,25.21,25.21,0,0,1-8.75,1.92,19,19,0,0,1-8.76-1.92,22.13,22.13,0,0,1-7.07-5.52,32.23,32.23,0,0,1-4.77-7.59,50.53,50.53,0,0,1-4.21-17.3,126.86,126.86,0,0,1,.41-17.77c.39-5.9.92-11.77.75-17.64a111.93,111.93,0,0,0-1.5-17.54,125.21,125.21,0,0,0-4-17.12A118.67,118.67,0,0,0,255,756l1.07.39-.37.16.45-1.05a139.86,139.86,0,0,1,5.5,17.65l.25,1.09h-1.12c-3.64,0-7.29,0-10.95-.26a56.65,56.65,0,0,1-10.92-1.71,35.09,35.09,0,0,1-10.18-4.54,33.12,33.12,0,0,1-8.12-7.68l-.4-.55.33-.58c1.76-3.07,3.55-6.09,5.4-9.1s3.73-6,5.82-8.88l.23,1.53-.32-.24,1.54-.21q-7.44,9.86-13.93,20.38l-.12.19-.18.14,0,0,.47-1a1.13,1.13,0,0,0-.14-.56,1.18,1.18,0,0,0-.2-.26,1.12,1.12,0,0,1,.2.27,1.08,1.08,0,0,1,.15.57v.35l-.18.29-2.35,3.88-2.23,4-4.44,8c-2.84,5.36-5.43,10.86-7.93,16.41s-5,11.17-7.73,16.66a85.9,85.9,0,0,1-9.87,15.71,58.66,58.66,0,0,1-13.85,12.49,69.16,69.16,0,0,1-16.91,7.8,103.74,103.74,0,0,1-18.15,3.83,34.33,34.33,0,0,1-18.7-2.59,24.17,24.17,0,0,1-7.79-5.75,23.91,23.91,0,0,1-4.8-8.42A32.92,32.92,0,0,1,103,825a46.21,46.21,0,0,1,1-9.41,77.13,77.13,0,0,1,6.48-17.47,169.91,169.91,0,0,1,9.27-16c13.38-20.62,29.83-38.86,42.45-59.59l0,0,0,0,1.71-2.33,1.56-2.17.24-.33h0l-.23.3a59.15,59.15,0,0,0,6-14.32l1,1.79-.38-.12,1.84-.89-1.3,3.39c-.47,1.16-1,2.22-1.51,3.33s-1.12,2.15-1.67,3.22l-1.87,3.14-.5.85-1-.17a37,37,0,0,1-27.62-22.59l.06.13,0-.06-.8-2,2-.21a60.25,60.25,0,0,1,14.88.21l-.49,2.93a51.5,51.5,0,0,0-8.41-.9c-1.41,0-2.82,0-4.24,0s-2.82.21-4.21.35h0c-10.41,1.16-20.41,4.93-29.79,9.73-4.69,2.43-9.27,5.11-13.72,8s-8.77,6-13.28,9A74.81,74.81,0,0,1,66,730.4a37.06,37.06,0,0,1-16.34,2.49,27.18,27.18,0,0,1-8.19-2,22,22,0,0,1-7-4.78,28,28,0,0,1-7.2-15,54.88,54.88,0,0,1-.89-8.17,69.56,69.56,0,0,1,.28-8.17,77.5,77.5,0,0,1,3.17-16,71,71,0,0,1,6.46-15,59.88,59.88,0,0,1,10.14-12.8A83,83,0,0,1,59.2,641.05a117.09,117.09,0,0,1,14.18-7.81,87.88,87.88,0,0,1,31.23-8.4l-.32.07a2,2,0,0,1,.53-.08h.37l.51,0-1.22,1.3a1.24,1.24,0,0,0,.08.4,1.3,1.3,0,0,0,.26.42,1.32,1.32,0,0,0,.48.31,1.22,1.22,0,0,0,.42.08l0-2.52a62.47,62.47,0,0,1,13.24.79l-.48,2.45q-3.23-.7-6.51-1.11c-1.09-.13-2.19-.24-3.29-.33s-2.23-.14-3.26-.17l-1,0-.23-.86a13.11,13.11,0,0,1-.4-2.94c0-.94,0-1.86,0-2.78s.09-1.82.15-2.72l.11-1.34,0-.65,0-.3v-.1h0a.58.58,0,0,0,0,.14v0l0,.06a1,1,0,0,0,.11.23,1.19,1.19,0,0,0,1,.56l-1.22-1.24V614l0-1.06,1.08-.13,13.91-1.71-1,1.31,0-.4,1.27,1.08-9.42.44-4.7.22-4.71.1H81.62L62.79,613A147.65,147.65,0,0,1,44,610.75a70.13,70.13,0,0,1-18.13-5.86,47.49,47.49,0,0,1-15.25-11.53,34.41,34.41,0,0,1-5.27-8.12,32.9,32.9,0,0,1-2.68-9.31,27.14,27.14,0,0,1,4-18.75c3.7-5.47,9.3-9.2,15.07-11.82a80.3,80.3,0,0,1,18.16-5.64c12.47-2.4,25.28-2.2,37.77-.65,6.26.77,12.47,1.89,18.61,3.2,3.09.63,6.13,1.41,9.19,2.12s6.12,1.44,9.15,2.24l18.22,4.7,9.11,2.35c3,.79,6.07,1.54,9.09,2.47l-.54,1.84-24.13-7.06-12.08-3.53-3-.89-3-.8-6.06-1.6L98,543l4.21-.7c12.22-2,24.64-3.82,37.17-3.26a83.12,83.12,0,0,1,18.53,2.85,63.35,63.35,0,0,1,8.87,3.19l2.13,1,2.08,1.07,4.13,2.13-.8,1.51a191.66,191.66,0,0,0-19-9.44,72.65,72.65,0,0,0-10-3.32A44.22,44.22,0,0,0,135,536.67h-.16l-.79-.58a22.93,22.93,0,0,1,2.85-19.16l.64,1.25a55.51,55.51,0,0,1-23.37-6.28,100,100,0,0,1-19.91-13.73c-3-2.64-6-5.4-8.85-8.21a86.91,86.91,0,0,1-8.12-9,40.18,40.18,0,0,1-6-10.62,27.89,27.89,0,0,1-1.71-12.12A22.68,22.68,0,0,1,74,446.78a30.7,30.7,0,0,1,9.15-8.1,43.91,43.91,0,0,1,11.31-4.46c3.88-1.06,7.78-2,11.69-2.94,1-.22,1.91-.47,3-.65s2-.26,3-.36c2-.18,4-.28,6.06-.28a75.12,75.12,0,0,1,12.07,1,97.94,97.94,0,0,1,23.09,7,188.36,188.36,0,0,1,21.37,11.15,83.06,83.06,0,0,1,10,6.76,41,41,0,0,1,8.21,8.92c4.58,6.72,7.26,14.45,9.58,22.11.61,1.91,1.08,3.88,1.77,5.71a9.62,9.62,0,0,0,3.43,4.54c3.22,2.2,6.94,4,10.17,6.38,13.31,9.12,24.05,21.66,31.91,35.66a123.18,123.18,0,0,1,9.61,22.07A88.06,88.06,0,0,1,264,584.92l-.21-.25a33.32,33.32,0,0,1,14.65,7.63A61,61,0,0,1,289.14,605c6.18,9.16,11.92,18.6,17.64,28a176.57,176.57,0,0,1,13.94,30A117,117,0,0,1,325,679a30.6,30.6,0,0,1,.71,8.27,13.09,13.09,0,0,1-1.28,4,19.16,19.16,0,0,1-2.22,3.52l-.14.18-.11-.19a41.28,41.28,0,0,0-10.33-12.06l.21,0-.19.23,0-.21A42.76,42.76,0,0,1,322.3,698a49.3,49.3,0,0,1,3.89,18.28c.19,6.28-.95,12.49-2.26,18.59l-1.11,4.56-1.33,4.5a22.59,22.59,0,0,1-4.57,8.17l-.13.14-.11-.16C314.76,749.12,312.92,746.05,311.1,743.13Z"/><path d="M216.06,597.4c-3-2.25-6.07-4.5-9.13-6.71l-9.37-6.38a111.84,111.84,0,0,0-19.83-10.67l-.61-.24.19-.66.09-.29.18-.63.66.12c7.74,1.34,14.92,4.71,21.55,8.7s12.65,9,18.61,13.83A113.54,113.54,0,0,1,235,610.79a60.29,60.29,0,0,1,6.41,9.9,51,51,0,0,1,4.11,11.12l.34,1.44-1.39.36-.29.08-1.43.37-.4-1.38a52.44,52.44,0,0,0-4.15-10.18,59.07,59.07,0,0,0-6.12-9.31,88.91,88.91,0,0,0-7.53-8.37C221.89,602.2,219,599.75,216.06,597.4Zm.18-.24q4.53,3.42,8.84,7.12a95.84,95.84,0,0,1,8.25,7.88,60.33,60.33,0,0,1,7,9.11,47.25,47.25,0,0,1,4.87,10.55l-1.83-1,.29-.08-1.05,1.8a48.9,48.9,0,0,0-4-10.42,60.82,60.82,0,0,0-6-9.49,110.37,110.37,0,0,0-15.84-16.3c-5.86-5-11.68-9.94-18.1-14s-13.35-7.45-20.79-8.9l.85-.51-.09.29-.42-.9a100,100,0,0,1,10.14,5.22c3.25,2,6.4,4.08,9.47,6.3l9.18,6.65C210.13,592.72,213.18,594.94,216.24,597.16Z"/><path d="M298,664.62l-3.91-3.69q-1.94-1.78-4-3.49c-2.68-2.27-5.46-4.42-8.34-6.41a101.84,101.84,0,0,0-18.21-10.39,77.64,77.64,0,0,0-20.1-5.49,69.19,69.19,0,0,0-20.72.23l-1.14.19-.21-1.17-.05-.3-.2-1.1,1.12-.25a72.3,72.3,0,0,1,21.91-1.48,78.36,78.36,0,0,1,10.88,1.79,84.11,84.11,0,0,1,10.48,3.37,64.33,64.33,0,0,1,26.72,18.76,53.1,53.1,0,0,1,6.11,9l.08.14-.12.08A2.08,2.08,0,0,1,298,664.62Zm0-.3a.75.75,0,0,1,.13-.16l0,.22a60.5,60.5,0,0,0-6.87-8.25,67.83,67.83,0,0,0-8-7,75.25,75.25,0,0,0-18.73-9.88,81.81,81.81,0,0,0-10.13-3.14,80.3,80.3,0,0,0-10.43-1.89,69.64,69.64,0,0,0-21.12.87l.92-1.35.05.3-1.35-1a71.13,71.13,0,0,1,21.36.2,78.79,78.79,0,0,1,20.41,6,102.77,102.77,0,0,1,18.13,11c2.86,2.1,5.59,4.34,8.22,6.69,1.32,1.18,2.6,2.39,3.87,3.62l1.87,1.86.93.94C297.49,663.7,297.75,664,298,664.32Z"/><path d="M135.73,534.67a14.54,14.54,0,0,1,2.39-15.27,1.52,1.52,0,0,0-.66-2.51c-23.55-8.41-50.21-18.28-62.43-42-2.81-5.45-4.69-11.55-4.38-17.74a20.4,20.4,0,0,1,8.16-15.26c9.78-7.62,23.2-9.77,35.27-9.37,13.12.43,26,3.74,38.48,7.59s25,8.79,34.36,18.17a39.46,39.46,0,0,1,9.55,14.9c2,5.85,2.87,12.12,5.86,17.61s8.09,9.05,13,12.59a110.38,110.38,0,0,1,13.2,11,113.55,113.55,0,0,1,32.18,61q.74,4.21,1.13,8.48c.18,1.9,3.18,1.92,3,0a116.26,116.26,0,0,0-28.57-65.68,111.77,111.77,0,0,0-12.86-12.42c-4.85-4-10.48-7.14-14.89-11.62-4.6-4.68-6.1-10.86-7.77-17a46.09,46.09,0,0,0-8.09-16.87c-8.25-10.49-20.47-16.64-32.83-20.95-12.82-4.46-26.24-8.12-39.78-9.44-13-1.26-26.57.06-38.17,6.4-5.33,2.91-10.13,7.08-12.52,12.78-2.47,5.91-2.15,12.62-.44,18.69,3.37,11.93,11.78,22,21.39,29.57,10.84,8.48,23.54,14,36.36,18.79,3.3,1.23,6.62,2.42,9.94,3.61l-.66-2.51a17.64,17.64,0,0,0-2.86,18.9c.79,1.76,3.38.24,2.59-1.51Z"/></g></g></svg>